<svg width="15" height="12" viewBox="0 0 15 12" fill="none" xmlns="http://www.w3.org/2000/svg">
<path d="M7.49633 7.15C7.00919 7.15 6.59635 7.0136 6.25781 6.74081C5.91927 6.46801 5.75 6.13676 5.75 5.74706C5.75 5.35735 5.92049 5.02708 6.26148 4.75625C6.60248 4.48542 7.01655 4.35 7.50367 4.35C7.99081 4.35 8.40365 4.4864 8.74219 4.75919C9.08073 5.03199 9.25 5.36324 9.25 5.75294C9.25 6.14265 9.07951 6.47292 8.73852 6.74375C8.39752 7.01458 7.98345 7.15 7.49633 7.15ZM7.5 9.5C5.97917 9.5 4.60417 9.15417 3.375 8.4625C2.14583 7.77083 1.22917 6.86667 0.625 5.75C1.22917 4.63333 2.14583 3.72917 3.375 3.0375C4.60417 2.34583 5.97917 2 7.5 2C8.98958 2 10.3411 2.33125 11.5547 2.99375C12.7682 3.65625 13.6875 4.53333 14.3125 5.625H13.3125C12.75 4.75 11.9472 4.05208 10.9042 3.53125C9.86116 3.01042 8.72643 2.75 7.5 2.75C6.23717 2.75 5.07771 3.02292 4.02163 3.56875C2.96554 4.11458 2.15625 4.84167 1.59375 5.75C2.15625 6.65833 2.96554 7.38542 4.02163 7.93125C5.07771 8.47708 6.23717 8.75 7.5 8.75C7.73438 8.75 7.96875 8.73958 8.20312 8.71875C8.4375 8.69792 8.67188 8.66667 8.90625 8.625V9.3875C8.67708 9.42917 8.44444 9.45833 8.20833 9.475C7.97222 9.49167 7.73611 9.5 7.5 9.5ZM7.5 7.875C7.77281 7.875 8.03633 7.84375 8.29055 7.78125C8.54476 7.71875 8.77604 7.62917 8.98438 7.5125C9.06771 7.22917 9.20573 6.96667 9.39844 6.725C9.59115 6.48333 9.82812 6.27917 10.1094 6.1125C10.1302 6.04583 10.1432 5.98542 10.1484 5.93125C10.1536 5.87708 10.1562 5.81667 10.1562 5.75C10.1562 5.15972 9.89782 4.65799 9.38097 4.24479C8.86413 3.8316 8.23652 3.625 7.49816 3.625C6.7598 3.625 6.13281 3.83174 5.61719 4.24522C5.10156 4.6587 4.84375 5.16078 4.84375 5.75148C4.84375 6.34216 5.10199 6.84375 5.61848 7.25625C6.13498 7.66875 6.76216 7.875 7.5 7.875ZM10.7031 10.5C10.5573 10.5 10.4297 10.4563 10.3203 10.3688C10.2109 10.2812 10.1562 10.1792 10.1562 10.0625V8.5625C10.1562 8.44583 10.2161 8.34375 10.3359 8.25625C10.4557 8.16875 10.6042 8.125 10.7812 8.125V7.5625C10.7812 7.30468 10.8961 7.08398 11.1257 6.90039C11.3553 6.7168 11.6314 6.625 11.9538 6.625C12.2763 6.625 12.5521 6.7168 12.7812 6.90039C13.0104 7.08398 13.125 7.30468 13.125 7.5625V8.125C13.3021 8.125 13.4505 8.16875 13.5703 8.25625C13.6901 8.34375 13.75 8.44583 13.75 8.5625V10.0625C13.75 10.1792 13.6953 10.2812 13.5859 10.3688C13.4766 10.4563 13.349 10.5 13.2031 10.5H10.7031ZM11.25 8.125H12.6562V7.5636C12.6562 7.40453 12.589 7.27083 12.4545 7.1625C12.32 7.05417 12.1533 7 11.9545 7C11.7557 7 11.5885 7.05391 11.4531 7.16173C11.3177 7.26953 11.25 7.40313 11.25 7.5625V8.125Z" fill="#989494"/>
</svg>
