<svg width="134" height="26" viewBox="0 0 134 26" fill="none" xmlns="http://www.w3.org/2000/svg">
<rect x="7.92273" y="18.185" width="19" height="6" transform="rotate(-50.9148 7.92273 18.185)" fill="#FFBB00"/>
<rect x="13.8409" y="20.4154" width="19" height="6" transform="rotate(-50.9148 13.8409 20.4154)" fill="#A66F00"/>
<path d="M17.2354 24C16.9634 24 16.7074 23.928 16.4674 23.784C16.2274 23.64 16.1074 23.432 16.1074 23.16V7.296C16.1074 7.024 16.2274 6.816 16.4674 6.672C16.7074 6.528 16.9634 6.456 17.2354 6.456H25.7794C26.0834 6.456 26.2994 6.576 26.4274 6.816C26.5554 7.056 26.6194 7.304 26.6194 7.56C26.6194 7.864 26.5474 8.136 26.4034 8.376C26.2594 8.6 26.0514 8.712 25.7794 8.712H18.6514V14.208H22.3474C22.6194 14.208 22.8274 14.312 22.9714 14.52C23.1154 14.728 23.1874 14.968 23.1874 15.24C23.1874 15.464 23.1234 15.688 22.9954 15.912C22.8674 16.12 22.6514 16.224 22.3474 16.224H18.6514V21.744H25.7794C26.0514 21.744 26.2594 21.856 26.4034 22.08C26.5474 22.304 26.6194 22.576 26.6194 22.896C26.6194 23.152 26.5554 23.4 26.4274 23.64C26.2994 23.88 26.0834 24 25.7794 24H17.2354ZM28.1348 19.296C27.8948 19.296 27.6948 19.2 27.5348 19.008C27.3908 18.8 27.3188 18.544 27.3188 18.24C27.3188 17.936 27.3908 17.68 27.5348 17.472C27.6948 17.264 27.8948 17.16 28.1348 17.16H34.3748C34.5988 17.16 34.7988 17.264 34.9748 17.472C35.1508 17.68 35.2388 17.936 35.2388 18.24C35.2388 18.544 35.1508 18.8 34.9748 19.008C34.7988 19.2 34.5988 19.296 34.3748 19.296H28.1348ZM38.8683 24C38.5323 24 38.2603 23.92 38.0523 23.76C37.8443 23.6 37.7402 23.408 37.7402 23.184V7.296C37.7402 7.024 37.8602 6.816 38.1003 6.672C38.3403 6.528 38.5963 6.456 38.8683 6.456H43.2363C44.1003 6.456 44.9003 6.568 45.6363 6.792C46.3723 7.016 46.9643 7.432 47.4123 8.04C47.8603 8.632 48.0843 9.488 48.0843 10.608C48.0843 11.616 47.9003 12.448 47.5323 13.104C47.1803 13.76 46.6843 14.224 46.0443 14.496C46.5403 14.688 46.9723 14.944 47.3403 15.264C47.7083 15.568 47.9963 15.984 48.2043 16.512C48.4123 17.024 48.5163 17.688 48.5163 18.504V18.96C48.5163 20.192 48.3083 21.176 47.8923 21.912C47.4763 22.648 46.9083 23.184 46.1883 23.52C45.4683 23.84 44.6523 24 43.7403 24H38.8683ZM40.2603 21.744H43.2603C44.1243 21.744 44.7883 21.512 45.2523 21.048C45.7323 20.568 45.9723 19.808 45.9723 18.768V18.384C45.9723 17.328 45.7323 16.584 45.2523 16.152C44.7883 15.72 44.1243 15.504 43.2603 15.504H40.2603V21.744ZM40.2603 13.488H43.1403C43.9563 13.488 44.5563 13.28 44.9403 12.864C45.3403 12.448 45.5403 11.832 45.5403 11.016C45.5403 10.472 45.4363 10.032 45.2283 9.696C45.0363 9.36 44.7563 9.112 44.3883 8.952C44.0203 8.792 43.5883 8.712 43.0923 8.712H40.2603V13.488ZM55.8779 24.192C54.7899 24.192 53.8299 23.992 52.9979 23.592C52.1659 23.192 51.5099 22.64 51.0299 21.936C50.5499 21.216 50.3099 20.376 50.3099 19.416V17.136C50.3099 16.288 50.5339 15.512 50.9819 14.808C51.4459 14.104 52.0539 13.544 52.8059 13.128C53.5579 12.696 54.3899 12.48 55.3019 12.48C56.1659 12.48 56.9579 12.672 57.6779 13.056C58.3979 13.424 58.9739 13.944 59.4059 14.616C59.8539 15.288 60.0779 16.056 60.0779 16.92C60.0779 17.592 59.9739 18.072 59.7659 18.36C59.5579 18.648 59.2859 18.824 58.9499 18.888C58.6139 18.952 58.2619 18.984 57.8939 18.984H52.8299V19.536C52.8299 20.336 53.1179 20.976 53.6939 21.456C54.2859 21.92 55.0379 22.152 55.9499 22.152C56.5099 22.152 56.9659 22.072 57.3179 21.912C57.6699 21.752 57.9659 21.6 58.2059 21.456C58.4459 21.312 58.6699 21.24 58.8779 21.24C59.0859 21.24 59.2619 21.304 59.4059 21.432C59.5499 21.56 59.6619 21.712 59.7419 21.888C59.8219 22.064 59.8619 22.224 59.8619 22.368C59.8619 22.608 59.6939 22.872 59.3579 23.16C59.0379 23.448 58.5819 23.696 57.9899 23.904C57.3979 24.096 56.6939 24.192 55.8779 24.192ZM52.8299 17.424H56.8139C57.1659 17.424 57.3979 17.376 57.5099 17.28C57.6379 17.184 57.7019 16.992 57.7019 16.704C57.7019 16.288 57.5979 15.904 57.3899 15.552C57.1819 15.184 56.8939 14.904 56.5259 14.712C56.1579 14.504 55.7419 14.4 55.2779 14.4C54.8299 14.4 54.4219 14.496 54.0539 14.688C53.6859 14.88 53.3899 15.144 53.1659 15.48C52.9419 15.816 52.8299 16.208 52.8299 16.656V17.424ZM63.3805 24C63.0125 24 62.7085 23.912 62.4685 23.736C62.2445 23.56 62.1325 23.368 62.1325 23.16V13.44C62.1325 13.2 62.2445 13.008 62.4685 12.864C62.7085 12.704 63.0125 12.624 63.3805 12.624C63.6845 12.624 63.9485 12.704 64.1725 12.864C64.3965 13.008 64.5085 13.2 64.5085 13.44V14.304C64.7485 13.84 65.1405 13.424 65.6845 13.056C66.2445 12.672 66.9245 12.48 67.7245 12.48C68.4765 12.48 69.1645 12.696 69.7885 13.128C70.4285 13.544 70.9405 14.112 71.3245 14.832C71.7085 15.536 71.9005 16.328 71.9005 17.208V23.16C71.9005 23.432 71.7645 23.64 71.4925 23.784C71.2365 23.928 70.9485 24 70.6285 24C70.3405 24 70.0605 23.928 69.7885 23.784C69.5165 23.64 69.3805 23.432 69.3805 23.16V17.208C69.3805 16.792 69.2685 16.392 69.0445 16.008C68.8365 15.624 68.5485 15.312 68.1805 15.072C67.8125 14.832 67.4045 14.712 66.9565 14.712C66.5725 14.712 66.2045 14.816 65.8525 15.024C65.5005 15.216 65.2125 15.496 64.9885 15.864C64.7645 16.232 64.6525 16.68 64.6525 17.208V23.16C64.6525 23.368 64.5245 23.56 64.2685 23.736C64.0285 23.912 63.7325 24 63.3805 24ZM79.5498 24.192C78.4618 24.192 77.5018 23.992 76.6698 23.592C75.8378 23.192 75.1818 22.64 74.7018 21.936C74.2218 21.216 73.9818 20.376 73.9818 19.416V17.136C73.9818 16.288 74.2058 15.512 74.6538 14.808C75.1178 14.104 75.7258 13.544 76.4778 13.128C77.2298 12.696 78.0618 12.48 78.9738 12.48C79.8378 12.48 80.6298 12.672 81.3498 13.056C82.0698 13.424 82.6458 13.944 83.0778 14.616C83.5258 15.288 83.7498 16.056 83.7498 16.92C83.7498 17.592 83.6458 18.072 83.4378 18.36C83.2298 18.648 82.9578 18.824 82.6218 18.888C82.2858 18.952 81.9338 18.984 81.5658 18.984H76.5018V19.536C76.5018 20.336 76.7898 20.976 77.3658 21.456C77.9578 21.92 78.7098 22.152 79.6218 22.152C80.1818 22.152 80.6378 22.072 80.9898 21.912C81.3418 21.752 81.6378 21.6 81.8778 21.456C82.1178 21.312 82.3418 21.24 82.5498 21.24C82.7578 21.24 82.9338 21.304 83.0778 21.432C83.2218 21.56 83.3338 21.712 83.4138 21.888C83.4938 22.064 83.5338 22.224 83.5338 22.368C83.5338 22.608 83.3658 22.872 83.0298 23.16C82.7098 23.448 82.2538 23.696 81.6618 23.904C81.0698 24.096 80.3658 24.192 79.5498 24.192ZM76.5018 17.424H80.4858C80.8378 17.424 81.0698 17.376 81.1818 17.28C81.3098 17.184 81.3738 16.992 81.3738 16.704C81.3738 16.288 81.2698 15.904 81.0618 15.552C80.8538 15.184 80.5658 14.904 80.1978 14.712C79.8298 14.504 79.4138 14.4 78.9498 14.4C78.5018 14.4 78.0938 14.496 77.7258 14.688C77.3578 14.88 77.0618 15.144 76.8378 15.48C76.6138 15.816 76.5018 16.208 76.5018 16.656V17.424ZM87.0524 24C86.7004 24 86.4044 23.928 86.1644 23.784C85.9404 23.624 85.8284 23.424 85.8284 23.184V10.872C85.8284 9.992 86.0444 9.168 86.4764 8.4C86.9244 7.632 87.5644 7.016 88.3964 6.552C89.2284 6.088 90.2284 5.856 91.3964 5.856C92.0364 5.856 92.6604 5.928 93.2684 6.072C93.8764 6.2 94.3724 6.392 94.7564 6.648C95.1404 6.888 95.3324 7.168 95.3324 7.488C95.3324 7.6 95.3004 7.776 95.2364 8.016C95.1724 8.24 95.0684 8.448 94.9244 8.64C94.7964 8.832 94.6284 8.928 94.4204 8.928C94.2444 8.928 94.0444 8.856 93.8204 8.712C93.6124 8.552 93.3244 8.4 92.9564 8.256C92.5884 8.096 92.0764 8.016 91.4204 8.016C90.9084 8.016 90.4524 8.088 90.0524 8.232C89.6684 8.376 89.3484 8.576 89.0924 8.832C88.8364 9.072 88.6444 9.36 88.5164 9.696C88.4044 10.016 88.3484 10.368 88.3484 10.752V12.624H91.0124C91.2524 12.624 91.4284 12.72 91.5404 12.912C91.6684 13.104 91.7324 13.32 91.7324 13.56C91.7324 13.8 91.6684 14.016 91.5404 14.208C91.4284 14.4 91.2524 14.496 91.0124 14.496H88.3484V23.184C88.3484 23.424 88.2204 23.624 87.9644 23.784C87.7084 23.928 87.4044 24 87.0524 24ZM94.9484 24C94.5964 24 94.3004 23.912 94.0604 23.736C93.8204 23.56 93.7004 23.368 93.7004 23.16V13.44C93.7004 13.2 93.8204 13.008 94.0604 12.864C94.3004 12.704 94.5964 12.624 94.9484 12.624C95.3004 12.624 95.5964 12.704 95.8364 12.864C96.0924 13.008 96.2204 13.2 96.2204 13.44V23.16C96.2204 23.368 96.0924 23.56 95.8364 23.736C95.5964 23.912 95.3004 24 94.9484 24ZM102.988 24C101.628 24 100.588 23.704 99.8676 23.112C99.1476 22.504 98.7876 21.552 98.7876 20.256V8.232C98.7876 7.992 98.9156 7.8 99.1716 7.656C99.4436 7.496 99.7316 7.416 100.036 7.416C100.34 7.416 100.628 7.496 100.9 7.656C101.172 7.8 101.308 7.992 101.308 8.232V12.624H104.236C104.46 12.624 104.628 12.72 104.74 12.912C104.868 13.104 104.932 13.32 104.932 13.56C104.932 13.8 104.868 14.016 104.74 14.208C104.628 14.4 104.46 14.496 104.236 14.496H101.308V20.256C101.308 20.832 101.428 21.24 101.668 21.48C101.924 21.72 102.364 21.84 102.988 21.84H103.804C104.172 21.84 104.444 21.952 104.62 22.176C104.812 22.384 104.908 22.632 104.908 22.92C104.908 23.192 104.812 23.44 104.62 23.664C104.444 23.888 104.172 24 103.804 24H102.988ZM110.144 24.192C109.36 24.192 108.656 24.096 108.032 23.904C107.408 23.712 106.912 23.472 106.544 23.184C106.192 22.88 106.016 22.576 106.016 22.272C106.016 22.128 106.048 21.968 106.112 21.792C106.192 21.616 106.296 21.464 106.424 21.336C106.568 21.208 106.72 21.144 106.88 21.144C107.088 21.144 107.304 21.24 107.528 21.432C107.768 21.608 108.08 21.792 108.464 21.984C108.848 22.16 109.384 22.248 110.072 22.248C110.872 22.248 111.408 22.112 111.68 21.84C111.968 21.568 112.112 21.272 112.112 20.952C112.112 20.536 111.968 20.216 111.68 19.992C111.408 19.752 111.048 19.56 110.6 19.416C110.168 19.272 109.704 19.136 109.208 19.008C108.712 18.864 108.24 18.68 107.792 18.456C107.36 18.232 107 17.92 106.712 17.52C106.44 17.12 106.304 16.592 106.304 15.936C106.304 15.392 106.44 14.856 106.712 14.328C106.984 13.784 107.416 13.344 108.008 13.008C108.616 12.656 109.424 12.48 110.432 12.48C111.04 12.48 111.616 12.544 112.16 12.672C112.704 12.8 113.152 12.976 113.504 13.2C113.856 13.408 114.032 13.64 114.032 13.896C114.032 14.008 113.992 14.168 113.912 14.376C113.832 14.568 113.72 14.744 113.576 14.904C113.448 15.048 113.28 15.12 113.072 15.12C112.912 15.12 112.712 15.064 112.472 14.952C112.232 14.824 111.952 14.704 111.632 14.592C111.312 14.48 110.92 14.424 110.456 14.424C109.992 14.424 109.616 14.504 109.328 14.664C109.056 14.808 108.856 14.984 108.728 15.192C108.6 15.4 108.536 15.608 108.536 15.816C108.536 16.168 108.672 16.44 108.944 16.632C109.216 16.824 109.576 16.984 110.024 17.112C110.472 17.24 110.944 17.376 111.44 17.52C111.936 17.648 112.4 17.84 112.832 18.096C113.28 18.352 113.64 18.696 113.912 19.128C114.2 19.56 114.344 20.136 114.344 20.856C114.344 21.864 113.976 22.672 113.24 23.28C112.52 23.888 111.488 24.192 110.144 24.192Z" fill="white"/>
<path d="M117.302 24.144C116.886 24.144 116.542 24 116.27 23.712C115.998 23.424 115.862 23.088 115.862 22.704C115.862 22.304 115.998 21.968 116.27 21.696C116.542 21.408 116.886 21.264 117.302 21.264C117.686 21.264 118.014 21.408 118.286 21.696C118.574 21.968 118.718 22.304 118.718 22.704C118.718 23.088 118.574 23.424 118.286 23.712C118.014 24 117.686 24.144 117.302 24.144Z" fill="#FFBB00"/>
</svg>
