<svg xmlns="http://www.w3.org/2000/svg" viewBox="0 0 500 500"><g id="freepik--Device--inject-3"><path d="M335.2,467.16H191.92c-17.31-.08-31.94-14.84-31.87-32.15l1.53-360.84A31.35,31.35,0,0,1,193.08,43L337,43.61A31.36,31.36,0,0,1,368.22,75.1l-1.53,360.84A31.34,31.34,0,0,1,335.2,467.16Z" style="fill:#263238"></path><path d="M336.81,58.77l-27.91-.13a6.94,6.94,0,0,0-6.81,7l0,5.06a6.92,6.92,0,0,1-6.8,7l-54.4-.25a6.94,6.94,0,0,1-6.75-7.11l0-5.06a7,7,0,0,0-6.75-7.12l-9.82,0-24.42-.11A22,22,0,0,0,171.1,80l-1.49,352.21a22,22,0,0,0,21.86,22.05l143.64.66A22,22,0,0,0,357.17,433l1.49-352.21A22,22,0,0,0,336.81,58.77Z" style="fill:#e0e0e0"></path><path d="M336.81,58.77l-27.91-.13a6.94,6.94,0,0,0-6.81,7l0,5.06a6.92,6.92,0,0,1-6.8,7l-54.4-.25a6.94,6.94,0,0,1-6.75-7.11l0-5.06a7,7,0,0,0-6.75-7.12l-9.82,0-24.42-.11A22,22,0,0,0,171.1,80l-.19,45.28H358.47l.19-44.43A22,22,0,0,0,336.81,58.77Z" style="fill:#111C47"></path><path d="M185.12,110a.52.52,0,0,1-.38-.17l-3.82-4.54a.51.51,0,0,1,0-.67l3.81-3.93a.5.5,0,0,1,.72.7L182,105l3.53,4.18a.51.51,0,0,1-.07.71A.52.52,0,0,1,185.12,110Z" style="fill:#fff"></path><path d="M190.14,105.55h-8.67a.5.5,0,0,1-.5-.5.5.5,0,0,1,.5-.5h8.67a.5.5,0,0,1,.5.5A.5.5,0,0,1,190.14,105.55Z" style="fill:#fff"></path><path d="M281,105.29c0,.14-13.86.26-30.94.26s-30.94-.12-30.94-.26S233,105,250,105,281,105.15,281,105.29Z" style="fill:#fff"></path><path d="M264.18,111.92c0,.14-10.1.26-22.54.26s-22.54-.12-22.54-.26,10.09-.26,22.54-.26S264.18,111.78,264.18,111.92Z" style="fill:#fff"></path><path d="M338.91,101.09a1.26,1.26,0,1,1-1.26-1.26A1.26,1.26,0,0,1,338.91,101.09Z" style="fill:#fff"></path><path d="M338.91,105.29a1.26,1.26,0,1,1-1.26-1.26A1.26,1.26,0,0,1,338.91,105.29Z" style="fill:#fff"></path><circle cx="337.65" cy="109.49" r="1.26" style="fill:#fff"></circle><rect x="170.52" y="125.25" width="187.12" height="184.54" style="fill:#fff"></rect><g style="opacity:0.30000000000000004"><path d="M303.86,376.15l0-.6c0-.4,0-1-.08-1.77a36.49,36.49,0,0,0-2.59-11.36,35.53,35.53,0,0,0-2.58-5.23,37.62,37.62,0,0,0-9.43-10.53,35.48,35.48,0,0,0-7.08-4.23,36.18,36.18,0,0,0-8.53-2.69,36.77,36.77,0,0,0-9.55-.53,37.37,37.37,0,0,0-5,.7,39,39,0,0,0-4.95,1.41,37.13,37.13,0,0,0-17.22,12.92,37.64,37.64,0,0,0-3,4.86c-.46.85-.84,1.73-1.24,2.62s-.73,1.8-1,2.73a37,37,0,0,0-1.9,11.69,39.51,39.51,0,0,0,.48,6,36.88,36.88,0,0,0,1.41,5.73c.3.93.67,1.83,1,2.74s.79,1.77,1.25,2.62a35.57,35.57,0,0,0,3,4.86A37.13,37.13,0,0,0,254.07,411a39,39,0,0,0,4.95,1.41,37.44,37.44,0,0,0,14.53.17,37,37,0,0,0,15.6-6.92,37.62,37.62,0,0,0,9.43-10.53,37.19,37.19,0,0,0,2.59-5.23,37.94,37.94,0,0,0,1.52-4.66,36.94,36.94,0,0,0,1.06-6.7c.07-.78.06-1.37.08-1.77l0-.6v.6c0,.4,0,1-.06,1.77a36.12,36.12,0,0,1-1,6.72,38.12,38.12,0,0,1-1.51,4.69,35.7,35.7,0,0,1-2.58,5.25,37.55,37.55,0,0,1-9.44,10.6,37.1,37.1,0,0,1-15.68,7,37.23,37.23,0,0,1-9.61.54,37.62,37.62,0,0,1-5-.69,41.37,41.37,0,0,1-5-1.42,37.34,37.34,0,0,1-17.34-13,36.5,36.5,0,0,1-3-4.9c-.46-.85-.86-1.74-1.26-2.64s-.73-1.81-1-2.75a37.4,37.4,0,0,1-1.42-5.77,40,40,0,0,1-.48-6,37.5,37.5,0,0,1,1.91-11.77c.29-.93.67-1.84,1-2.75s.79-1.78,1.25-2.64A37.33,37.33,0,0,1,254,341.1a41.37,41.37,0,0,1,5-1.42,37.62,37.62,0,0,1,5-.69,37.23,37.23,0,0,1,9.61.54,36.39,36.39,0,0,1,8.57,2.72,36.79,36.79,0,0,1,7.11,4.26,37.74,37.74,0,0,1,9.44,10.61,35.7,35.7,0,0,1,2.58,5.25,38.56,38.56,0,0,1,1.51,4.68,36.32,36.32,0,0,1,1,6.73c.07.77,0,1.37.06,1.77Z" style="fill:#111C47"></path></g><path d="M299.15,375.35s0-.18,0-.52,0-.86-.07-1.53a33.4,33.4,0,0,0-.92-5.78,32,32,0,0,0-11.69-17.61,31.56,31.56,0,0,0-6.11-3.65,31.1,31.1,0,0,0-7.35-2.32,32.05,32.05,0,0,0-8.24-.45,31.69,31.69,0,0,0-4.28.6,35,35,0,0,0-4.27,1.22,31.94,31.94,0,0,0-14.85,11.14,31,31,0,0,0-2.61,4.19,29.9,29.9,0,0,0-2,4.62,31.83,31.83,0,0,0,0,20.17,29.9,29.9,0,0,0,2,4.62,32,32,0,0,0,17.46,15.34,33.22,33.22,0,0,0,4.27,1.21,30.18,30.18,0,0,0,4.28.6,31.19,31.19,0,0,0,8.24-.45,31.89,31.89,0,0,0,13.47-6,32.38,32.38,0,0,0,8.13-9.08,32.73,32.73,0,0,0,3.55-8.53,33.26,33.26,0,0,0,.92-5.78c.06-.67.05-1.18.07-1.52s0-.52,0-.52,0,.7,0,2a31.71,31.71,0,0,1-4.4,14.38,32.51,32.51,0,0,1-8.15,9.16A32.05,32.05,0,0,1,273,407a32,32,0,0,1-8.29.47,34,34,0,0,1-4.32-.6,35.41,35.41,0,0,1-4.3-1.22,32.1,32.1,0,0,1-17.6-15.45,30.32,30.32,0,0,1-2-4.65,32.14,32.14,0,0,1,0-20.33,30.32,30.32,0,0,1,2-4.65,31.51,31.51,0,0,1,2.63-4.23,32,32,0,0,1,19.27-12.43,30.59,30.59,0,0,1,4.31-.6,31.63,31.63,0,0,1,8.3.47,31.88,31.88,0,0,1,13.53,6,32,32,0,0,1,11.67,17.73,31.79,31.79,0,0,1,.88,5.8C299.17,374.64,299.15,375.35,299.15,375.35Z" style="fill:#111C47"></path><circle cx="266.7" cy="376.15" r="26.39" transform="translate(-187.86 298.76) rotate(-45)" style="fill:#111C47"></circle><rect x="263.17" y="368.13" width="6.98" height="11.08" rx="3.39" style="fill:#fafafa"></rect><path d="M266.66,381.33a5.15,5.15,0,0,1-5.14-5.15.25.25,0,0,1,.49,0,4.66,4.66,0,0,0,4.65,4.66,4.46,4.46,0,0,0,4.66-4.66.25.25,0,0,1,.49,0A4.93,4.93,0,0,1,266.66,381.33Z" style="fill:#fafafa"></path><rect x="266.42" y="381.08" width="0.49" height="2.52" style="fill:#fff"></rect><path d="M269.71,383.74h-6.09a.25.25,0,1,1,0-.49h6.09a.25.25,0,0,1,0,.49Z" style="fill:#fff"></path><path d="M261.56,370.15c0,.06-.4-.06-.84-.25s-.79-.36-.77-.43.42,0,.87.2S261.59,370.09,261.56,370.15Z" style="fill:#fff"></path><path d="M263.52,367.54c-.06,0-.37-.29-.71-.74s-.56-.86-.5-.9.37.29.71.75S263.58,367.5,263.52,367.54Z" style="fill:#fff"></path><path d="M266.68,366.61c-.07,0-.12-.43-.12-1s.07-1,.14-.95.12.43.12.95A2,2,0,0,1,266.68,366.61Z" style="fill:#fff"></path><path d="M270.73,365.92c.06,0-.09.4-.38.78s-.59.62-.64.58.17-.36.44-.73S270.67,365.89,270.73,365.92Z" style="fill:#fff"></path><path d="M273.45,369.22c0,.06-.29.31-.72.56s-.82.4-.85.33.29-.31.72-.55S273.42,369.16,273.45,369.22Z" style="fill:#fff"></path><path d="M317.06,374.49l2.88-3.62a1.28,1.28,0,0,1,1-.49h8.67a1.3,1.3,0,0,1,1.3,1.29v7.14a1.3,1.3,0,0,1-1.3,1.3h-8.53a1.29,1.29,0,0,1-1-.45l-3-3.52A1.31,1.31,0,0,1,317.06,374.49Z" style="fill:#455a64"></path><path d="M202.94,370.83a5.32,5.32,0,0,1,1.28-.55l.27-1.27,2.14,0,.3,1.26a5.17,5.17,0,0,1,1.3.51l1.08-.71,1.54,1.49-.67,1.1a5.36,5.36,0,0,1,.56,1.28l1.26.27,0,2.14-1.25.3a5.61,5.61,0,0,1-.52,1.3L211,379l-1.48,1.54-1.11-.67a5,5,0,0,1-1.28.56l-.26,1.26-2.14,0-.31-1.26a5.1,5.1,0,0,1-1.29-.51l-1.09.71-1.53-1.48.67-1.11a5,5,0,0,1-.56-1.28l-1.27-.26,0-2.14,1.25-.31a5.32,5.32,0,0,1,.51-1.3l-.71-1.08,1.49-1.54,1.1.67Zm1.15,2.85a2.29,2.29,0,1,0,3.24-.05A2.29,2.29,0,0,0,204.09,373.68Z" style="fill:#455a64"></path><rect x="321.25" y="374.74" width="6.49" height="1" transform="translate(-170.29 339.32) rotate(-45)" style="fill:#fff"></rect><rect x="324.33" y="372" width="1" height="6.49" transform="translate(-170.2 339.65) rotate(-45.01)" style="fill:#fff"></rect><rect x="179.85" y="251.13" width="142.34" height="24.51" rx="11.91" style="fill:#ebebeb"></rect><rect x="170.13" y="284.9" width="188" height="28.87" style="fill:#f5f5f5"></rect><path d="M244.11,298H245v5.69h3.52v.8h-4.45Z" style="fill:#263238"></path><path d="M249.33,298a.59.59,0,0,1,.6-.59.58.58,0,1,1-.6.59Zm.16,1.52h.89v4.91h-.89Z" style="fill:#263238"></path><path d="M251.45,304l.37-.71a3.16,3.16,0,0,0,1.73.51c.83,0,1.17-.25,1.17-.67,0-1.1-3.11-.15-3.11-2.1,0-.88.79-1.48,2-1.48a3.57,3.57,0,0,1,1.79.45l-.38.7a2.54,2.54,0,0,0-1.42-.39c-.78,0-1.16.29-1.16.68,0,1.16,3.12.21,3.12,2.12,0,.9-.82,1.46-2.13,1.46A3.6,3.6,0,0,1,251.45,304Z" style="fill:#263238"></path><path d="M259.48,304.19a1.67,1.67,0,0,1-1.07.34,1.4,1.4,0,0,1-1.56-1.54v-2.7H256v-.73h.84v-1.08h.89v1.08h1.41v.73h-1.41V303a.73.73,0,0,0,.77.83,1.08,1.08,0,0,0,.69-.23Z" style="fill:#263238"></path><path d="M264.81,302.31h-4a1.67,1.67,0,0,0,1.79,1.44,1.85,1.85,0,0,0,1.42-.59l.49.57a2.68,2.68,0,0,1-4.59-1.71,2.41,2.41,0,0,1,2.47-2.51,2.37,2.37,0,0,1,2.43,2.53A2.45,2.45,0,0,1,264.81,302.31Zm-4-.64H264a1.59,1.59,0,0,0-3.16,0Z" style="fill:#263238"></path><path d="M270.73,301.64v2.83h-.89v-2.72c0-1-.48-1.44-1.33-1.44a1.47,1.47,0,0,0-1.56,1.63v2.53h-.89v-4.91h.85v.74a2.14,2.14,0,0,1,1.78-.79A1.91,1.91,0,0,1,270.73,301.64Z" style="fill:#263238"></path><path d="M272.22,298a.59.59,0,0,1,.6-.59.58.58,0,1,1-.6.59Zm.15,1.52h.89v4.91h-.89Z" style="fill:#263238"></path><path d="M279.63,301.64v2.83h-.89v-2.72c0-1-.49-1.44-1.33-1.44a1.46,1.46,0,0,0-1.56,1.63v2.53H275v-4.91h.86v.74a2.1,2.1,0,0,1,1.77-.79A1.91,1.91,0,0,1,279.63,301.64Z" style="fill:#263238"></path><path d="M286,299.56v4.25a2.23,2.23,0,0,1-2.55,2.52,3.62,3.62,0,0,1-2.34-.73l.42-.69a3,3,0,0,0,1.9.64c1.15,0,1.68-.54,1.68-1.65v-.39a2.23,2.23,0,0,1-1.77.76,2.38,2.38,0,1,1,0-4.76,2.25,2.25,0,0,1,1.82.81v-.76Zm-.87,2.33a1.69,1.69,0,1,0-1.69,1.6A1.57,1.57,0,0,0,285.13,301.89Z" style="fill:#263238"></path><path d="M287.28,303.89a.62.62,0,0,1,.63-.63.61.61,0,0,1,.61.63.62.62,0,0,1-.61.64A.63.63,0,0,1,287.28,303.89Z" style="fill:#263238"></path><path d="M289.38,303.89a.62.62,0,0,1,.63-.63.61.61,0,0,1,.62.63.62.62,0,0,1-.62.64A.63.63,0,0,1,289.38,303.89Z" style="fill:#263238"></path><path d="M291.49,303.89a.62.62,0,0,1,.63-.63.61.61,0,0,1,.61.63.62.62,0,0,1-.61.64A.63.63,0,0,1,291.49,303.89Z" style="fill:#263238"></path><path d="M201.58,260v6.49h-.93v-2.89h-3.73v2.89H196V260h.92v2.79h3.73V260Z" style="fill:#263238"></path><path d="M203.23,260.08a.59.59,0,0,1,.61-.59.58.58,0,1,1-.61.59Zm.16,1.52h.89v4.91h-.89Z" style="fill:#263238"></path><path d="M205.77,266a.59.59,0,0,1,.62-.6.6.6,0,0,1,0,1.19A.6.6,0,0,1,205.77,266Zm.09-6h1l-.18,4.44H206Z" style="fill:#263238"></path><path d="M208.07,265.93a.62.62,0,0,1,.63-.63.61.61,0,0,1,.62.63.62.62,0,0,1-.62.64A.63.63,0,0,1,208.07,265.93Z" style="fill:#263238"></path><path d="M210.18,265.93a.62.62,0,1,1,.63.64A.62.62,0,0,1,210.18,265.93Z" style="fill:#263238"></path><path d="M212.28,265.93a.62.62,0,0,1,.63-.63.6.6,0,0,1,.61.63.61.61,0,0,1-.61.64A.63.63,0,0,1,212.28,265.93Z" style="fill:#263238"></path><circle cx="338.55" cy="263.39" r="11.99" style="fill:#111C47"></circle><path d="M335.84,262.52v-3.35a.35.35,0,0,1,.5-.31l8.67,4.28a.34.34,0,0,1,0,.62l-8.67,4.16a.35.35,0,0,1-.5-.31v-2.85a.34.34,0,0,1,.25-.33l3.18-.9-3.15-.67A.36.36,0,0,1,335.84,262.52Z" style="fill:#fff"></path><path d="M348.76,139.83a.82.82,0,0,0-.52-1.46h-156a4.27,4.27,0,0,0-4.27,4.27v30.75a4.27,4.27,0,0,0,4.27,4.27H334.76a4.27,4.27,0,0,0,4.27-4.27V148.23a.81.81,0,0,1,.3-.63Z" style="fill:#ebebeb"></path><path d="M313.89,153.93c0,.14-24.22.26-54.09.26s-54.1-.12-54.1-.26,24.22-.27,54.1-.27S313.89,153.78,313.89,153.93Z" style="fill:#263238"></path><path d="M313.89,161.37c0,.14-24.22.26-54.09.26s-54.1-.12-54.1-.26,24.22-.26,54.1-.26S313.89,161.23,313.89,161.37Z" style="fill:#263238"></path><rect x="221.88" y="182.66" width="116.18" height="24.67" rx="3.99" style="fill:#ebebeb"></rect><path d="M325.5,194.3c0,.14-20.48.26-45.73.26S234,194.44,234,194.3s20.47-.26,45.74-.26S325.5,194.16,325.5,194.3Z" style="fill:#263238"></path></g></svg>