<svg width="22" height="22" viewBox="0 0 22 22" fill="none" xmlns="http://www.w3.org/2000/svg">
<path d="M1.83337 9.16667C1.83337 7.63889 2.1733 6.23715 2.85317 4.96146C3.53303 3.68576 4.44587 2.62778 5.59171 1.7875L6.66879 3.25417C5.75212 3.92639 5.02261 4.7743 4.48025 5.79792C3.93789 6.82153 3.66671 7.94444 3.66671 9.16667H1.83337ZM18.3334 9.16667C18.3334 7.94444 18.0622 6.82153 17.5198 5.79792C16.9775 4.7743 16.248 3.92639 15.3313 3.25417L16.4084 1.7875C17.5542 2.62778 18.4671 3.68576 19.1469 4.96146C19.8268 6.23715 20.1667 7.63889 20.1667 9.16667H18.3334ZM3.66671 17.4167V15.5833H5.50004V9.16667C5.50004 7.89861 5.88198 6.77187 6.64587 5.78646C7.40976 4.80104 8.40282 4.15555 9.62504 3.85V3.20833C9.62504 2.82639 9.75872 2.50173 10.0261 2.23437C10.2934 1.96701 10.6181 1.83333 11 1.83333C11.382 1.83333 11.7066 1.96701 11.974 2.23437C12.2414 2.50173 12.375 2.82639 12.375 3.20833V3.85C13.5973 4.15555 14.5903 4.80104 15.3542 5.78646C16.1181 6.77187 16.5 7.89861 16.5 9.16667V15.5833H18.3334V17.4167H3.66671ZM11 20.1667C10.4959 20.1667 10.0643 19.9872 9.70525 19.6281C9.34622 19.2691 9.16671 18.8375 9.16671 18.3333H12.8334C12.8334 18.8375 12.6539 19.2691 12.2948 19.6281C11.9358 19.9872 11.5042 20.1667 11 20.1667ZM7.33337 15.5833H14.6667V9.16667C14.6667 8.15833 14.3077 7.29514 13.5896 6.57708C12.8716 5.85903 12.0084 5.5 11 5.5C9.99171 5.5 9.12851 5.85903 8.41046 6.57708C7.6924 7.29514 7.33337 8.15833 7.33337 9.16667V15.5833Z" fill="#ADA6A7"/>
</svg>
