<svg width="22" height="22" viewBox="0 0 22 22" fill="none" xmlns="http://www.w3.org/2000/svg">
<path d="M10.9083 15.5833C11.2292 15.5833 11.5003 15.4726 11.7219 15.251C11.9434 15.0295 12.0542 14.7583 12.0542 14.4375C12.0542 14.1167 11.9434 13.8455 11.7219 13.624C11.5003 13.4024 11.2292 13.2917 10.9083 13.2917C10.5875 13.2917 10.3163 13.4024 10.0948 13.624C9.87326 13.8455 9.7625 14.1167 9.7625 14.4375C9.7625 14.7583 9.87326 15.0295 10.0948 15.251C10.3163 15.4726 10.5875 15.5833 10.9083 15.5833ZM10.0833 12.0542H11.7792C11.7792 11.7944 11.7906 11.5729 11.8135 11.3896C11.8365 11.2062 11.8861 11.0306 11.9625 10.8625C12.0389 10.6944 12.1344 10.5378 12.249 10.3927C12.3635 10.2476 12.5278 10.0681 12.7417 9.85417C13.2764 9.31944 13.6545 8.87257 13.876 8.51354C14.0976 8.15451 14.2083 7.74583 14.2083 7.2875C14.2083 6.47778 13.9333 5.82465 13.3833 5.32812C12.8333 4.8316 12.0924 4.58333 11.1604 4.58333C10.3201 4.58333 9.6059 4.78958 9.01771 5.20208C8.42951 5.61458 8.02083 6.1875 7.79167 6.92083L9.30417 7.51667C9.41111 7.10417 9.625 6.77187 9.94583 6.51979C10.2667 6.26771 10.641 6.14167 11.0688 6.14167C11.4812 6.14167 11.825 6.25243 12.1 6.47396C12.375 6.69549 12.5125 6.98958 12.5125 7.35625C12.5125 7.61597 12.4285 7.89097 12.2604 8.18125C12.0924 8.47153 11.8097 8.79236 11.4125 9.14375C11.1528 9.35764 10.9427 9.56771 10.7823 9.77396C10.6219 9.98021 10.4882 10.1979 10.3813 10.4271C10.2743 10.6562 10.1979 10.8969 10.1521 11.149C10.1063 11.401 10.0833 11.7028 10.0833 12.0542ZM11 21.0833L8.25 18.3333H4.58333C4.07917 18.3333 3.64757 18.1538 3.28854 17.7948C2.92951 17.4358 2.75 17.0042 2.75 16.5V3.66667C2.75 3.1625 2.92951 2.7309 3.28854 2.37187C3.64757 2.01285 4.07917 1.83333 4.58333 1.83333H17.4167C17.9208 1.83333 18.3524 2.01285 18.7115 2.37187C19.0705 2.7309 19.25 3.1625 19.25 3.66667V16.5C19.25 17.0042 19.0705 17.4358 18.7115 17.7948C18.3524 18.1538 17.9208 18.3333 17.4167 18.3333H13.75L11 21.0833ZM4.58333 16.5H8.98333L11 18.5167L13.0167 16.5H17.4167V3.66667H4.58333V16.5Z" fill="#ADA6A7"/>
</svg>
