<svg width="24" height="24" viewBox="0 0 24 24" fill="none" xmlns="http://www.w3.org/2000/svg">
<path d="M11.9167 23.8333C9.89444 23.8333 8.03472 23.3729 6.3375 22.4521C4.64028 21.5312 3.25 20.3035 2.16667 18.7687V21.6667H0V15.1667H6.5V17.3333H3.81875C4.68542 18.6333 5.82743 19.6806 7.24479 20.475C8.66215 21.2694 10.2194 21.6667 11.9167 21.6667C13.2708 21.6667 14.5392 21.4094 15.7219 20.8948C16.9045 20.3802 17.9337 19.6851 18.8094 18.8094C19.6851 17.9337 20.3802 16.9045 20.8948 15.7219C21.4094 14.5392 21.6667 13.2708 21.6667 11.9167H23.8333C23.8333 13.5597 23.5219 15.1035 22.899 16.5479C22.276 17.9924 21.4229 19.2563 20.3396 20.3396C19.2563 21.4229 17.9924 22.276 16.5479 22.899C15.1035 23.5219 13.5597 23.8333 11.9167 23.8333ZM10.9417 19.5V18.0917C10.0931 17.8931 9.40243 17.5274 8.86979 16.9948C8.33715 16.4622 7.94444 15.7625 7.69167 14.8958L9.47917 14.1917C9.69583 14.9319 10.0344 15.4872 10.4948 15.8573C10.9552 16.2274 11.4833 16.4125 12.0792 16.4125C12.675 16.4125 13.1851 16.2726 13.6094 15.9927C14.0337 15.7128 14.2458 15.275 14.2458 14.6792C14.2458 14.1556 14.0247 13.7312 13.5823 13.4062C13.1399 13.0813 12.35 12.7111 11.2125 12.2958C10.1472 11.9167 9.36632 11.4653 8.86979 10.9417C8.37326 10.4181 8.125 9.73194 8.125 8.88333C8.125 8.14306 8.38229 7.47049 8.89688 6.86562C9.41146 6.26076 10.1111 5.86806 10.9958 5.6875V4.33333H12.8917V5.6875C13.5417 5.74167 14.133 6.00347 14.6656 6.47292C15.1983 6.94236 15.5639 7.49306 15.7625 8.125L14.0292 8.82917C13.8847 8.41389 13.65 8.06632 13.325 7.78646C13 7.5066 12.5486 7.36667 11.9708 7.36667C11.3389 7.36667 10.8559 7.50208 10.5219 7.77292C10.1878 8.04375 10.0208 8.41389 10.0208 8.88333C10.0208 9.35278 10.2285 9.72292 10.6438 9.99375C11.059 10.2646 11.8083 10.5806 12.8917 10.9417C14.1917 11.4111 15.0583 11.9618 15.4917 12.5938C15.925 13.2257 16.1417 13.9208 16.1417 14.6792C16.1417 15.2028 16.0514 15.6632 15.8708 16.0604C15.6903 16.4576 15.451 16.7962 15.1531 17.076C14.8552 17.3559 14.5076 17.5816 14.1104 17.7531C13.7132 17.9247 13.2889 18.0556 12.8375 18.1458V19.5H10.9417ZM0 11.9167C0 10.2736 0.311458 8.72986 0.934375 7.28542C1.55729 5.84097 2.41042 4.57708 3.49375 3.49375C4.57708 2.41042 5.84097 1.55729 7.28542 0.934375C8.72986 0.311458 10.2736 0 11.9167 0C13.9389 0 15.7986 0.460417 17.4958 1.38125C19.1931 2.30208 20.5833 3.52986 21.6667 5.06458V2.16667H23.8333V8.66667H17.3333V6.5H20.0146C19.1479 5.2 18.0059 4.15278 16.5885 3.35833C15.1712 2.56389 13.6139 2.16667 11.9167 2.16667C10.5625 2.16667 9.2941 2.42396 8.11146 2.93854C6.92882 3.45312 5.89965 4.14826 5.02396 5.02396C4.14826 5.89965 3.45312 6.92882 2.93854 8.11146C2.42396 9.2941 2.16667 10.5625 2.16667 11.9167H0Z" fill="#ADA6A7"/>
</svg>
