<svg width="22" height="22" viewBox="0 0 22 22" fill="none" xmlns="http://www.w3.org/2000/svg">
<path d="M10.9946 13.1083C10.2801 13.1083 9.67461 12.8583 9.17808 12.3581C8.68156 11.858 8.43329 11.2507 8.43329 10.5363C8.43329 9.82181 8.68335 9.21631 9.18347 8.71978C9.6836 8.22325 10.2909 7.97499 11.0053 7.97499C11.7198 7.97499 12.3253 8.22505 12.8218 8.72517C13.3184 9.2253 13.5666 9.83259 13.5666 10.547C13.5666 11.2615 13.3166 11.867 12.8165 12.3635C12.3163 12.8601 11.709 13.1083 10.9946 13.1083ZM11 17.4167C8.7694 17.4167 6.75274 16.7826 4.94996 15.5146C3.14718 14.2465 1.80274 12.5889 0.916626 10.5417C1.80274 8.49443 3.14718 6.8368 4.94996 5.56874C6.75274 4.30068 8.7694 3.66666 11 3.66666C13.1847 3.66666 15.167 4.27395 16.9468 5.48853C18.7267 6.70311 20.075 8.3111 20.9916 10.3125H19.525C18.7 8.70832 17.5226 7.42881 15.9928 6.47395C14.463 5.51909 12.7987 5.04166 11 5.04166C9.1478 5.04166 7.44727 5.542 5.89834 6.5427C4.34942 7.54339 3.16246 8.87638 2.33746 10.5417C3.16246 12.2069 4.34942 13.5399 5.89834 14.5406C7.44727 15.5413 9.1478 16.0417 11 16.0417C11.3437 16.0417 11.6875 16.0226 12.0312 15.9844C12.375 15.9462 12.7187 15.8889 13.0625 15.8125V17.2104C12.7263 17.2868 12.3851 17.3403 12.0388 17.3708C11.6926 17.4014 11.3463 17.4167 11 17.4167ZM11 14.4375C11.4001 14.4375 11.7866 14.3802 12.1594 14.2656C12.5323 14.151 12.8715 13.9868 13.177 13.7729C13.2993 13.2535 13.5017 12.7722 13.7843 12.3292C14.067 11.8861 14.4145 11.5118 14.827 11.2062C14.8576 11.084 14.8767 10.9733 14.8843 10.8739C14.892 10.7746 14.8958 10.6639 14.8958 10.5417C14.8958 9.45949 14.5168 8.53963 13.7587 7.7821C13.0007 7.02458 12.0802 6.64582 10.9973 6.64582C9.91434 6.64582 8.99475 7.02485 8.2385 7.7829C7.48225 8.54094 7.10413 9.46143 7.10413 10.5444C7.10413 11.6273 7.48289 12.5469 8.2404 13.3031C8.99794 14.0594 9.91779 14.4375 11 14.4375Z" fill="#DEDCDC"/>
<path d="M15.4209 14.6667H18.3972V14C18.3972 13.7222 18.3007 13.4861 18.1078 13.2917C17.9149 13.0972 17.6807 13 17.4051 13C17.1295 13 16.8953 13.0972 16.7024 13.2917C16.5095 13.4861 16.413 13.7222 16.413 14H15.7516C15.7516 13.5389 15.9128 13.1458 16.2353 12.8208C16.5577 12.4958 16.9476 12.3333 17.4051 12.3333C17.8626 12.3333 18.2525 12.4958 18.5749 12.8208C18.8974 13.1458 19.0586 13.5389 19.0586 14V14.6667H19.3893C19.5712 14.6667 19.7269 14.732 19.8564 14.8625C19.9859 14.9931 20.0507 15.15 20.0507 15.3333V18.6667C20.0507 18.85 19.9859 19.007 19.8564 19.1375C19.7269 19.2681 19.5712 19.3333 19.3893 19.3333H15.4209C15.239 19.3333 15.0833 19.2681 14.9538 19.1375C14.8243 19.007 14.7595 18.85 14.7595 18.6667V15.3333C14.7595 15.15 14.8243 14.9931 14.9538 14.8625C15.0833 14.732 15.239 14.6667 15.4209 14.6667ZM15.4209 18.6667H19.3893V15.3333H15.4209V18.6667ZM17.4051 17.6667C17.587 17.6667 17.7427 17.6014 17.8722 17.4708C18.0017 17.3403 18.0665 17.1833 18.0665 17C18.0665 16.8167 18.0017 16.6597 17.8722 16.5292C17.7427 16.3986 17.587 16.3333 17.4051 16.3333C17.2232 16.3333 17.0675 16.3986 16.938 16.5292C16.8085 16.6597 16.7437 16.8167 16.7437 17C16.7437 17.1833 16.8085 17.3403 16.938 17.4708C17.0675 17.6014 17.2232 17.6667 17.4051 17.6667Z" fill="#DEDCDC"/>
</svg>
