<svg width="76" height="20" viewBox="0 0 76 20" fill="none" xmlns="http://www.w3.org/2000/svg">
<rect width="12.6484" height="3.97896" transform="matrix(0.642348 -0.758288 0.79386 0.61828 2.0802 12.3409)" fill="#FFBB00"/>
<rect width="12.6484" height="3.97896" transform="matrix(0.642348 -0.758288 0.79386 0.61828 6.09412 13.7914)" fill="#A66F00"/>
<path d="M7.82363 16C7.64229 16 7.47163 15.952 7.31163 15.856C7.15162 15.76 7.07162 15.6213 7.07162 15.44V4.864C7.07162 4.68267 7.15162 4.544 7.31163 4.448C7.47163 4.352 7.64229 4.304 7.82363 4.304H13.5196C13.7223 4.304 13.8663 4.384 13.9516 4.544C14.037 4.704 14.0796 4.86933 14.0796 5.04C14.0796 5.24267 14.0316 5.424 13.9356 5.584C13.8396 5.73333 13.701 5.808 13.5196 5.808H8.76763V9.472H11.2316C11.413 9.472 11.5516 9.54133 11.6476 9.68C11.7436 9.81867 11.7916 9.97867 11.7916 10.16C11.7916 10.3093 11.749 10.4587 11.6636 10.608C11.5783 10.7467 11.4343 10.816 11.2316 10.816H8.76763V14.496H13.5196C13.701 14.496 13.8396 14.5707 13.9356 14.72C14.0316 14.8693 14.0796 15.0507 14.0796 15.264C14.0796 15.4347 14.037 15.6 13.9516 15.76C13.8663 15.92 13.7223 16 13.5196 16H7.82363ZM15.0899 12.864C14.9299 12.864 14.7965 12.8 14.6899 12.672C14.5939 12.5333 14.5459 12.3627 14.5459 12.16C14.5459 11.9573 14.5939 11.7867 14.6899 11.648C14.7965 11.5093 14.9299 11.44 15.0899 11.44H19.2499C19.3992 11.44 19.5325 11.5093 19.6499 11.648C19.7672 11.7867 19.8259 11.9573 19.8259 12.16C19.8259 12.3627 19.7672 12.5333 19.6499 12.672C19.5325 12.8 19.3992 12.864 19.2499 12.864H15.0899ZM22.2455 16C22.0215 16 21.8402 15.9467 21.7015 15.84C21.5628 15.7333 21.4935 15.6053 21.4935 15.456V4.864C21.4935 4.68267 21.5735 4.544 21.7335 4.448C21.8935 4.352 22.0642 4.304 22.2455 4.304H25.1575C25.7335 4.304 26.2668 4.37867 26.7575 4.528C27.2482 4.67733 27.6428 4.95467 27.9415 5.36C28.2402 5.75467 28.3895 6.32533 28.3895 7.072C28.3895 7.744 28.2668 8.29867 28.0215 8.736C27.7868 9.17333 27.4562 9.48267 27.0295 9.664C27.3602 9.792 27.6482 9.96267 27.8935 10.176C28.1388 10.3787 28.3308 10.656 28.4695 11.008C28.6082 11.3493 28.6775 11.792 28.6775 12.336V12.64C28.6775 13.4613 28.5388 14.1173 28.2615 14.608C27.9842 15.0987 27.6055 15.456 27.1255 15.68C26.6455 15.8933 26.1015 16 25.4935 16H22.2455ZM23.1735 14.496H25.1735C25.7495 14.496 26.1922 14.3413 26.5015 14.032C26.8215 13.712 26.9815 13.2053 26.9815 12.512V12.256C26.9815 11.552 26.8215 11.056 26.5015 10.768C26.1922 10.48 25.7495 10.336 25.1735 10.336H23.1735V14.496ZM23.1735 8.992H25.0935C25.6375 8.992 26.0375 8.85333 26.2935 8.576C26.5602 8.29867 26.6935 7.888 26.6935 7.344C26.6935 6.98133 26.6242 6.688 26.4855 6.464C26.3575 6.24 26.1708 6.07467 25.9255 5.968C25.6802 5.86133 25.3922 5.808 25.0615 5.808H23.1735V8.992ZM33.5853 16.128C32.8599 16.128 32.2199 15.9947 31.6653 15.728C31.1106 15.4613 30.6733 15.0933 30.3533 14.624C30.0333 14.144 29.8733 13.584 29.8733 12.944V11.424C29.8733 10.8587 30.0226 10.3413 30.3213 9.872C30.6306 9.40267 31.0359 9.02933 31.5373 8.752C32.0386 8.464 32.5933 8.32 33.2013 8.32C33.7773 8.32 34.3053 8.448 34.7853 8.704C35.2653 8.94933 35.6493 9.296 35.9373 9.744C36.2359 10.192 36.3853 10.704 36.3853 11.28C36.3853 11.728 36.3159 12.048 36.1773 12.24C36.0386 12.432 35.8573 12.5493 35.6333 12.592C35.4093 12.6347 35.1746 12.656 34.9293 12.656H31.5533V13.024C31.5533 13.5573 31.7453 13.984 32.1293 14.304C32.5239 14.6133 33.0253 14.768 33.6333 14.768C34.0066 14.768 34.3106 14.7147 34.5453 14.608C34.7799 14.5013 34.9773 14.4 35.1373 14.304C35.2973 14.208 35.4466 14.16 35.5853 14.16C35.7239 14.16 35.8413 14.2027 35.9373 14.288C36.0333 14.3733 36.1079 14.4747 36.1613 14.592C36.2146 14.7093 36.2413 14.816 36.2413 14.912C36.2413 15.072 36.1293 15.248 35.9053 15.44C35.6919 15.632 35.3879 15.7973 34.9933 15.936C34.5986 16.064 34.1293 16.128 33.5853 16.128ZM31.5533 11.616H34.2093C34.4439 11.616 34.5986 11.584 34.6733 11.52C34.7586 11.456 34.8013 11.328 34.8013 11.136C34.8013 10.8587 34.7319 10.6027 34.5933 10.368C34.4546 10.1227 34.2626 9.936 34.0173 9.808C33.7719 9.66933 33.4946 9.6 33.1853 9.6C32.8866 9.6 32.6146 9.664 32.3693 9.792C32.1239 9.92 31.9266 10.096 31.7773 10.32C31.6279 10.544 31.5533 10.8053 31.5533 11.104V11.616ZM38.587 16C38.3417 16 38.139 15.9413 37.979 15.824C37.8297 15.7067 37.755 15.5787 37.755 15.44V8.96C37.755 8.8 37.8297 8.672 37.979 8.576C38.139 8.46933 38.3417 8.416 38.587 8.416C38.7897 8.416 38.9657 8.46933 39.115 8.576C39.2643 8.672 39.339 8.8 39.339 8.96V9.536C39.499 9.22667 39.7603 8.94933 40.123 8.704C40.4963 8.448 40.9497 8.32 41.483 8.32C41.9843 8.32 42.443 8.464 42.859 8.752C43.2857 9.02933 43.627 9.408 43.883 9.888C44.139 10.3573 44.267 10.8853 44.267 11.472V15.44C44.267 15.6213 44.1763 15.76 43.995 15.856C43.8243 15.952 43.6323 16 43.419 16C43.227 16 43.0403 15.952 42.859 15.856C42.6777 15.76 42.587 15.6213 42.587 15.44V11.472C42.587 11.1947 42.5123 10.928 42.363 10.672C42.2243 10.416 42.0323 10.208 41.787 10.048C41.5417 9.888 41.2697 9.808 40.971 9.808C40.715 9.808 40.4697 9.87733 40.235 10.016C40.0003 10.144 39.8083 10.3307 39.659 10.576C39.5097 10.8213 39.435 11.12 39.435 11.472V15.44C39.435 15.5787 39.3497 15.7067 39.179 15.824C39.019 15.9413 38.8217 16 38.587 16ZM49.3665 16.128C48.6412 16.128 48.0012 15.9947 47.4465 15.728C46.8918 15.4613 46.4545 15.0933 46.1345 14.624C45.8145 14.144 45.6545 13.584 45.6545 12.944V11.424C45.6545 10.8587 45.8038 10.3413 46.1025 9.872C46.4118 9.40267 46.8172 9.02933 47.3185 8.752C47.8198 8.464 48.3745 8.32 48.9825 8.32C49.5585 8.32 50.0865 8.448 50.5665 8.704C51.0465 8.94933 51.4305 9.296 51.7185 9.744C52.0172 10.192 52.1665 10.704 52.1665 11.28C52.1665 11.728 52.0972 12.048 51.9585 12.24C51.8198 12.432 51.6385 12.5493 51.4145 12.592C51.1905 12.6347 50.9558 12.656 50.7105 12.656H47.3345V13.024C47.3345 13.5573 47.5265 13.984 47.9105 14.304C48.3052 14.6133 48.8065 14.768 49.4145 14.768C49.7878 14.768 50.0918 14.7147 50.3265 14.608C50.5612 14.5013 50.7585 14.4 50.9185 14.304C51.0785 14.208 51.2278 14.16 51.3665 14.16C51.5052 14.16 51.6225 14.2027 51.7185 14.288C51.8145 14.3733 51.8892 14.4747 51.9425 14.592C51.9958 14.7093 52.0225 14.816 52.0225 14.912C52.0225 15.072 51.9105 15.248 51.6865 15.44C51.4732 15.632 51.1692 15.7973 50.7745 15.936C50.3798 16.064 49.9105 16.128 49.3665 16.128ZM47.3345 11.616H49.9905C50.2252 11.616 50.3798 11.584 50.4545 11.52C50.5398 11.456 50.5825 11.328 50.5825 11.136C50.5825 10.8587 50.5132 10.6027 50.3745 10.368C50.2358 10.1227 50.0438 9.936 49.7985 9.808C49.5532 9.66933 49.2758 9.6 48.9665 9.6C48.6678 9.6 48.3958 9.664 48.1505 9.792C47.9052 9.92 47.7078 10.096 47.5585 10.32C47.4092 10.544 47.3345 10.8053 47.3345 11.104V11.616ZM54.3683 16C54.1336 16 53.9363 15.952 53.7763 15.856C53.6269 15.7493 53.5523 15.616 53.5523 15.456V7.248C53.5523 6.66133 53.6963 6.112 53.9843 5.6C54.2829 5.088 54.7096 4.67733 55.2643 4.368C55.8189 4.05867 56.4856 3.904 57.2643 3.904C57.6909 3.904 58.1069 3.952 58.5123 4.048C58.9176 4.13333 59.2483 4.26133 59.5043 4.432C59.7603 4.592 59.8883 4.77867 59.8883 4.992C59.8883 5.06667 59.8669 5.184 59.8243 5.344C59.7816 5.49333 59.7123 5.632 59.6163 5.76C59.5309 5.888 59.4189 5.952 59.2803 5.952C59.1629 5.952 59.0296 5.904 58.8803 5.808C58.7416 5.70133 58.5496 5.6 58.3043 5.504C58.0589 5.39733 57.7176 5.344 57.2803 5.344C56.9389 5.344 56.6349 5.392 56.3683 5.488C56.1123 5.584 55.8989 5.71733 55.7283 5.888C55.5576 6.048 55.4296 6.24 55.3443 6.464C55.2696 6.67733 55.2323 6.912 55.2323 7.168V8.416H57.0083C57.1683 8.416 57.2856 8.48 57.3602 8.608C57.4456 8.736 57.4883 8.88 57.4883 9.04C57.4883 9.2 57.4456 9.344 57.3602 9.472C57.2856 9.6 57.1683 9.664 57.0083 9.664H55.2323V15.456C55.2323 15.616 55.1469 15.7493 54.9763 15.856C54.8056 15.952 54.6029 16 54.3683 16ZM59.6323 16C59.3976 16 59.2003 15.9413 59.0403 15.824C58.8803 15.7067 58.8003 15.5787 58.8003 15.44V8.96C58.8003 8.8 58.8803 8.672 59.0403 8.576C59.2003 8.46933 59.3976 8.416 59.6323 8.416C59.8669 8.416 60.0643 8.46933 60.2243 8.576C60.3949 8.672 60.4803 8.8 60.4803 8.96V15.44C60.4803 15.5787 60.3949 15.7067 60.2243 15.824C60.0643 15.9413 59.8669 16 59.6323 16ZM64.9918 16C64.0851 16 63.3918 15.8027 62.9118 15.408C62.4318 15.0027 62.1918 14.368 62.1918 13.504V5.488C62.1918 5.328 62.2771 5.2 62.4478 5.104C62.6291 4.99733 62.8211 4.944 63.0238 4.944C63.2264 4.944 63.4184 4.99733 63.5998 5.104C63.7811 5.2 63.8718 5.328 63.8718 5.488V8.416H65.8238C65.9731 8.416 66.0851 8.48 66.1598 8.608C66.2451 8.736 66.2878 8.88 66.2878 9.04C66.2878 9.2 66.2451 9.344 66.1598 9.472C66.0851 9.6 65.9731 9.664 65.8238 9.664H63.8718V13.504C63.8718 13.888 63.9518 14.16 64.1118 14.32C64.2824 14.48 64.5758 14.56 64.9918 14.56H65.5358C65.7811 14.56 65.9624 14.6347 66.0798 14.784C66.2078 14.9227 66.2718 15.088 66.2718 15.28C66.2718 15.4613 66.2078 15.6267 66.0798 15.776C65.9624 15.9253 65.7811 16 65.5358 16H64.9918ZM69.7625 16.128C69.2398 16.128 68.7705 16.064 68.3545 15.936C67.9385 15.808 67.6078 15.648 67.3625 15.456C67.1278 15.2533 67.0105 15.0507 67.0105 14.848C67.0105 14.752 67.0318 14.6453 67.0745 14.528C67.1278 14.4107 67.1972 14.3093 67.2825 14.224C67.3785 14.1387 67.4798 14.096 67.5865 14.096C67.7252 14.096 67.8692 14.16 68.0185 14.288C68.1785 14.4053 68.3865 14.528 68.6425 14.656C68.8985 14.7733 69.2558 14.832 69.7145 14.832C70.2478 14.832 70.6052 14.7413 70.7865 14.56C70.9785 14.3787 71.0745 14.1813 71.0745 13.968C71.0745 13.6907 70.9785 13.4773 70.7865 13.328C70.6052 13.168 70.3652 13.04 70.0665 12.944C69.7785 12.848 69.4692 12.7573 69.1385 12.672C68.8078 12.576 68.4932 12.4533 68.1945 12.304C67.9065 12.1547 67.6665 11.9467 67.4745 11.68C67.2932 11.4133 67.2025 11.0613 67.2025 10.624C67.2025 10.2613 67.2932 9.904 67.4745 9.552C67.6558 9.18933 67.9438 8.896 68.3385 8.672C68.7438 8.43733 69.2825 8.32 69.9545 8.32C70.3598 8.32 70.7438 8.36267 71.1065 8.448C71.4692 8.53333 71.7678 8.65067 72.0025 8.8C72.2372 8.93867 72.3545 9.09333 72.3545 9.264C72.3545 9.33867 72.3278 9.44533 72.2745 9.584C72.2212 9.712 72.1465 9.82933 72.0505 9.936C71.9652 10.032 71.8532 10.08 71.7145 10.08C71.6078 10.08 71.4745 10.0427 71.3145 9.968C71.1545 9.88267 70.9678 9.80267 70.7545 9.728C70.5412 9.65333 70.2798 9.616 69.9705 9.616C69.6612 9.616 69.4105 9.66933 69.2185 9.776C69.0372 9.872 68.9038 9.98933 68.8185 10.128C68.7332 10.2667 68.6905 10.4053 68.6905 10.544C68.6905 10.7787 68.7812 10.96 68.9625 11.088C69.1438 11.216 69.3838 11.3227 69.6825 11.408C69.9812 11.4933 70.2958 11.584 70.6265 11.68C70.9572 11.7653 71.2665 11.8933 71.5545 12.064C71.8532 12.2347 72.0932 12.464 72.2745 12.752C72.4665 13.04 72.5625 13.424 72.5625 13.904C72.5625 14.576 72.3172 15.1147 71.8265 15.52C71.3465 15.9253 70.6585 16.128 69.7625 16.128Z" fill="white"/>
<path d="M74.5345 16.096C74.2572 16.096 74.0278 16 73.8465 15.808C73.6652 15.616 73.5745 15.392 73.5745 15.136C73.5745 14.8693 73.6652 14.6453 73.8465 14.464C74.0278 14.272 74.2572 14.176 74.5345 14.176C74.7905 14.176 75.0092 14.272 75.1905 14.464C75.3825 14.6453 75.4785 14.8693 75.4785 15.136C75.4785 15.392 75.3825 15.616 75.1905 15.808C75.0092 16 74.7905 16.096 74.5345 16.096Z" fill="#FFBB00"/>
</svg>
