<svg width="16" height="10" viewBox="0 0 16 10" fill="none" xmlns="http://www.w3.org/2000/svg">
<path d="M1.17053 9.65762C0.870532 9.65762 0.608032 9.56768 0.383032 9.38782C0.158032 9.20795 0.0455322 8.9981 0.0455322 8.75828V0.964034C0.0455322 0.724211 0.158032 0.514365 0.383032 0.334498C0.608032 0.154631 0.870532 0.0646973 1.17053 0.0646973H13.9205C14.2205 0.0646973 14.483 0.154631 14.708 0.334498C14.933 0.514365 15.0455 0.724211 15.0455 0.964034V8.75828C15.0455 8.9981 14.933 9.20795 14.708 9.38782C14.483 9.56768 14.2205 9.65762 13.9205 9.65762H1.17053ZM7.54553 5.13096L1.17053 1.78843V8.75828H13.9205V1.78843L7.54553 5.13096ZM7.54553 4.23162L13.8455 0.964034H1.26428L7.54553 4.23162ZM1.17053 1.78843V0.964034V8.75828V1.78843Z" fill="#989494"/>
</svg>
