<svg width="16" height="15" viewBox="0 0 16 15" fill="none" xmlns="http://www.w3.org/2000/svg">
<g clip-path="url(#clip0_10_315)">
<path d="M8.307 8.9375C7.81986 8.9375 7.40702 8.76701 7.06848 8.42602C6.72994 8.08502 6.56067 7.67095 6.56067 7.18383C6.56067 6.69669 6.73116 6.28385 7.07215 5.94531C7.41315 5.60677 7.82722 5.4375 8.31434 5.4375C8.80148 5.4375 9.21431 5.60799 9.55286 5.94898C9.8914 6.28998 10.0607 6.70405 10.0607 7.19117C10.0607 7.67831 9.89017 8.09115 9.54918 8.42969C9.20819 8.76823 8.79412 8.9375 8.307 8.9375ZM8.31067 11.875C6.78984 11.875 5.41484 11.4427 4.18567 10.5781C2.9565 9.71354 2.03984 8.58333 1.43567 7.1875C2.03984 5.79167 2.9565 4.66146 4.18567 3.79688C5.41484 2.93229 6.78984 2.5 8.31067 2.5C9.80025 2.5 11.1518 2.91406 12.3654 3.74219C13.5789 4.57031 14.4982 5.66667 15.1232 7.03125H14.1232C13.5607 5.9375 12.7579 5.0651 11.7149 4.41406C10.6718 3.76302 9.5371 3.4375 8.31067 3.4375C7.04784 3.4375 5.88838 3.77865 4.83229 4.46094C3.77621 5.14323 2.96692 6.05208 2.40442 7.1875C2.96692 8.32292 3.77621 9.23177 4.83229 9.91406C5.88838 10.5964 7.04784 10.9375 8.31067 10.9375C8.54504 10.9375 8.77942 10.9245 9.01379 10.8984C9.24817 10.8724 9.48254 10.8333 9.71692 10.7812V11.7344C9.48775 11.7865 9.25511 11.8229 9.019 11.8438C8.78289 11.8646 8.54678 11.875 8.31067 11.875ZM8.31067 9.84375C8.58348 9.84375 8.847 9.80469 9.10122 9.72656C9.35543 9.64844 9.58671 9.53646 9.79504 9.39063C9.87838 9.03646 10.0164 8.70833 10.2091 8.40625C10.4018 8.10417 10.6388 7.84896 10.92 7.64062C10.9409 7.55729 10.9539 7.48177 10.9591 7.41406C10.9643 7.34635 10.9669 7.27083 10.9669 7.1875C10.9669 6.44966 10.7085 5.82248 10.1916 5.30598C9.67479 4.78949 9.04719 4.53125 8.30883 4.53125C7.57047 4.53125 6.94348 4.78968 6.42786 5.30653C5.91223 5.82337 5.65442 6.45098 5.65442 7.18934C5.65442 7.9277 5.91266 8.55469 6.42915 9.07031C6.94565 9.58594 7.57283 9.84375 8.31067 9.84375Z" fill="#989494"/>
<path d="M11.3249 10H13.3541V9.54545C13.3541 9.35606 13.2884 9.19507 13.1568 9.0625C13.0253 8.92992 12.8656 8.86363 12.6777 8.86363C12.4898 8.86363 12.3301 8.92992 12.1986 9.0625C12.067 9.19507 12.0013 9.35606 12.0013 9.54545H11.5503C11.5503 9.23106 11.6602 8.96307 11.8801 8.74147C12.0999 8.51988 12.3658 8.40909 12.6777 8.40909C12.9896 8.40909 13.2555 8.51988 13.4753 8.74147C13.6952 8.96307 13.8051 9.23106 13.8051 9.54545V10H14.0305C14.1546 10 14.2607 10.0445 14.349 10.1335C14.4373 10.2225 14.4815 10.3295 14.4815 10.4545V12.7273C14.4815 12.8523 14.4373 12.9593 14.349 13.0483C14.2607 13.1373 14.1546 13.1818 14.0305 13.1818H11.3249C11.2008 13.1818 11.0947 13.1373 11.0064 13.0483C10.9181 12.9593 10.8739 12.8523 10.8739 12.7273V10.4545C10.8739 10.3295 10.9181 10.2225 11.0064 10.1335C11.0947 10.0445 11.2008 10 11.3249 10ZM11.3249 12.7273H14.0305V10.4545H11.3249V12.7273ZM12.6777 12.0455C12.8017 12.0455 12.9079 12.0009 12.9962 11.9119C13.0845 11.8229 13.1286 11.7159 13.1286 11.5909C13.1286 11.4659 13.0845 11.3589 12.9962 11.2699C12.9079 11.1809 12.8017 11.1364 12.6777 11.1364C12.5537 11.1364 12.4475 11.1809 12.3592 11.2699C12.2709 11.3589 12.2267 11.4659 12.2267 11.5909C12.2267 11.7159 12.2709 11.8229 12.3592 11.9119C12.4475 12.0009 12.5537 12.0455 12.6777 12.0455Z" fill="#989494"/>
</g>
<defs>
<clipPath id="clip0_10_315">
<rect width="15" height="15" fill="white" transform="translate(0.810669)"/>
</clipPath>
</defs>
</svg>
