<svg width="16" height="15" viewBox="0 0 16 15" fill="none" xmlns="http://www.w3.org/2000/svg">
<path d="M8.45459 7.48438C7.76709 7.48438 7.20459 7.26562 6.76709 6.82812C6.32959 6.39062 6.11084 5.82812 6.11084 5.14062C6.11084 4.45312 6.32959 3.89062 6.76709 3.45312C7.20459 3.01562 7.76709 2.79688 8.45459 2.79688C9.14209 2.79688 9.70459 3.01562 10.1421 3.45312C10.5796 3.89062 10.7983 4.45312 10.7983 5.14062C10.7983 5.82812 10.5796 6.39062 10.1421 6.82812C9.70459 7.26562 9.14209 7.48438 8.45459 7.48438ZM3.45459 12.5V11.0312C3.45459 10.6354 3.55355 10.2969 3.75146 10.0156C3.94938 9.73438 4.20459 9.52083 4.51709 9.375C5.21501 9.0625 5.88428 8.82812 6.5249 8.67188C7.16553 8.51562 7.80876 8.4375 8.45459 8.4375C9.10042 8.4375 9.74105 8.51823 10.3765 8.67969C11.0119 8.84115 11.6781 9.07393 12.3752 9.37803C12.7013 9.52518 12.9627 9.73854 13.1594 10.0181C13.3562 10.2977 13.4546 10.6354 13.4546 11.0312V12.5H3.45459ZM4.39209 11.5625H12.5171V11.0312C12.5171 10.8646 12.4676 10.7057 12.3687 10.5547C12.2697 10.4036 12.1473 10.2917 12.0015 10.2188C11.3348 9.89583 10.7254 9.67448 10.1733 9.55469C9.62126 9.4349 9.04834 9.375 8.45459 9.375C7.86084 9.375 7.28271 9.4349 6.72021 9.55469C6.15771 9.67448 5.54834 9.89583 4.89209 10.2188C4.74626 10.2917 4.62646 10.4036 4.53271 10.5547C4.43896 10.7057 4.39209 10.8646 4.39209 11.0312V11.5625ZM8.45459 6.54688C8.86084 6.54688 9.19678 6.41406 9.4624 6.14844C9.72803 5.88281 9.86084 5.54688 9.86084 5.14062C9.86084 4.73438 9.72803 4.39844 9.4624 4.13281C9.19678 3.86719 8.86084 3.73438 8.45459 3.73438C8.04834 3.73438 7.7124 3.86719 7.44678 4.13281C7.18115 4.39844 7.04834 4.73438 7.04834 5.14062C7.04834 5.54688 7.18115 5.88281 7.44678 6.14844C7.7124 6.41406 8.04834 6.54688 8.45459 6.54688Z" fill="#989494"/>
</svg>
