<svg width="245" height="122" viewBox="0 0 245 122" fill="none" xmlns="http://www.w3.org/2000/svg">
<g filter="url(#filter0_b_289_25)">
<rect width="245" height="122" rx="10" fill="black" fill-opacity="0.63"/>
<rect x="0.5" y="0.5" width="244" height="121" rx="9.5" stroke="#919191" stroke-opacity="0.62"/>
</g>
<g opacity="0.9">
<path d="M23 51.0001H25V49.0001H23V51.0001ZM23 47.0001H25V43.0001H23V47.0001ZM27 51.0001H29V47.0001H27V51.0001ZM27 45.0001H29V43.0001H27V45.0001ZM31 51.0001H33V49.0001H31V51.0001ZM31 47.0001H33V43.0001H31V47.0001ZM22 54.0001C21.45 54.0001 20.9792 53.8042 20.5875 53.4126C20.1958 53.0209 20 52.5501 20 52.0001V40.0001L26 34.0001H34C34.55 34.0001 35.0208 34.1959 35.4125 34.5876C35.8042 34.9792 36 35.4501 36 36.0001V52.0001C36 52.5501 35.8042 53.0209 35.4125 53.4126C35.0208 53.8042 34.55 54.0001 34 54.0001H22ZM22 52.0001H34V36.0001H26.85L22 40.8501V52.0001Z" fill="#B8B1B1"/>
</g>
<path d="M31.1857 24.9238C31.7224 25.0512 32.2336 25.2193 32.7196 25.4278L31.8084 28C31.4439 27.861 31.0693 27.7451 30.6846 27.6524C30.2998 27.5597 29.905 27.5134 29.5 27.5134C29.095 27.5134 28.7002 27.5597 28.3154 27.6524C27.9307 27.7451 27.5561 27.861 27.1916 28L26.2804 25.4278C26.7664 25.2193 27.2776 25.0512 27.8143 24.9238C28.3509 24.7963 28.9128 24.7326 29.5 24.7326C30.0872 24.7326 30.6491 24.7963 31.1857 24.9238Z" fill="#B8B1B1"/>
<path d="M31.9907 20.127C32.8006 20.3008 33.5903 20.5847 34.3598 20.9786L33.4486 23.5508C32.8411 23.2264 32.2083 22.9947 31.5502 22.8556C30.8921 22.7166 30.2087 22.6471 29.5 22.6471C28.7913 22.6471 28.1079 22.7166 27.4498 22.8556C26.7917 22.9947 26.1589 23.2264 25.5514 23.5508L24.6402 20.9786C25.4097 20.5847 26.1994 20.3008 27.0093 20.127C27.8193 19.9532 28.6495 19.8663 29.5 19.8663C30.3505 19.8663 31.1807 19.9532 31.9907 20.127Z" fill="#B8B1B1"/>
<path d="M32.8563 15.365C33.9396 15.6083 34.9875 15.9733 36 16.4599L35.028 19.0321C34.1776 18.615 33.2866 18.3021 32.3551 18.0936C31.4237 17.885 30.472 17.7807 29.5 17.7807C28.528 17.7807 27.5763 17.885 26.6449 18.0936C25.7134 18.3021 24.8224 18.615 23.972 19.0321L23 16.4599C24.0125 15.9733 25.0604 15.6083 26.1437 15.365C27.227 15.1217 28.3458 15 29.5 15C30.6542 15 31.773 15.1217 32.8563 15.365Z" fill="#B8B1B1"/>
<path d="M226.072 40.39C226.072 40.566 226.036 40.734 225.964 40.894C225.892 41.046 225.784 41.146 225.64 41.194L217.864 43.582C217.816 43.598 217.78 43.606 217.756 43.606C217.652 43.606 217.564 43.566 217.492 43.486C217.412 43.398 217.348 43.294 217.3 43.174C217.252 43.046 217.228 42.926 217.228 42.814C217.228 42.702 217.248 42.606 217.288 42.526C217.328 42.446 217.396 42.394 217.492 42.37L224.332 40.39L217.492 38.422C217.396 38.39 217.328 38.334 217.288 38.254C217.248 38.174 217.228 38.082 217.228 37.978C217.228 37.858 217.252 37.738 217.3 37.618C217.348 37.498 217.412 37.398 217.492 37.318C217.564 37.23 217.652 37.186 217.756 37.186C217.772 37.186 217.788 37.19 217.804 37.198C217.82 37.198 217.84 37.198 217.864 37.198L225.64 39.574C225.784 39.622 225.892 39.726 225.964 39.886C226.036 40.038 226.072 40.206 226.072 40.39ZM226 35.6072C226 35.7672 225.964 35.9152 225.892 36.0512C225.82 36.1792 225.716 36.2432 225.58 36.2432H217.636C217.492 36.2432 217.388 36.1792 217.324 36.0512C217.26 35.9152 217.228 35.7672 217.228 35.6072C217.228 35.4472 217.26 35.3032 217.324 35.1752C217.388 35.0392 217.492 34.9712 217.636 34.9712H225.58C225.716 34.9712 225.82 35.0392 225.892 35.1752C225.964 35.3032 226 35.4472 226 35.6072ZM226.096 31.1758C226.096 31.6958 226.02 32.1558 225.868 32.5558C225.716 32.9558 225.532 33.2678 225.316 33.4918C225.092 33.7158 224.88 33.8278 224.68 33.8278C224.584 33.8278 224.484 33.8038 224.38 33.7558C224.276 33.6998 224.188 33.6318 224.116 33.5518C224.036 33.4638 223.996 33.3718 223.996 33.2758C223.996 33.1638 224.044 33.0598 224.14 32.9638C224.228 32.8598 224.336 32.7358 224.464 32.5918C224.592 32.4478 224.704 32.2678 224.8 32.0518C224.896 31.8358 224.944 31.5598 224.944 31.2238C224.944 30.9358 224.9 30.6798 224.812 30.4558C224.716 30.2238 224.576 30.0438 224.392 29.9158C224.2 29.7798 223.96 29.7118 223.672 29.7118C223.368 29.7118 223.116 29.7838 222.916 29.9278C222.716 30.0638 222.548 30.2518 222.412 30.4918C222.276 30.7238 222.152 30.9758 222.04 31.2478C221.928 31.5198 221.808 31.7958 221.68 32.0758C221.552 32.3558 221.4 32.6118 221.224 32.8438C221.04 33.0758 220.812 33.2638 220.54 33.4078C220.26 33.5438 219.912 33.6118 219.496 33.6118C219.056 33.6118 218.688 33.5318 218.392 33.3718C218.096 33.2038 217.86 32.9838 217.684 32.7118C217.508 32.4398 217.384 32.1398 217.312 31.8118C217.232 31.4838 217.192 31.1598 217.192 30.8398C217.192 30.6398 217.208 30.4198 217.24 30.1798C217.264 29.9318 217.312 29.6918 217.384 29.4598C217.448 29.2278 217.536 29.0358 217.648 28.8838C217.76 28.7318 217.896 28.6558 218.056 28.6558C218.136 28.6558 218.232 28.6758 218.344 28.7158C218.448 28.7558 218.54 28.8158 218.62 28.8958C218.7 28.9678 218.74 29.0638 218.74 29.1838C218.74 29.2878 218.704 29.4038 218.632 29.5318C218.552 29.6598 218.476 29.8278 218.404 30.0358C218.324 30.2358 218.284 30.5038 218.284 30.8398C218.284 31.1278 218.324 31.3878 218.404 31.6198C218.484 31.8438 218.604 32.0198 218.764 32.1478C218.916 32.2758 219.12 32.3398 219.376 32.3398C219.632 32.3398 219.844 32.2718 220.012 32.1358C220.172 31.9918 220.312 31.8038 220.432 31.5718C220.544 31.3398 220.652 31.0878 220.756 30.8158C220.86 30.5358 220.984 30.2598 221.128 29.9878C221.264 29.7078 221.432 29.4518 221.632 29.2198C221.832 28.9798 222.088 28.7918 222.4 28.6558C222.704 28.5118 223.084 28.4398 223.54 28.4398C224.116 28.4398 224.596 28.5598 224.98 28.7998C225.356 29.0318 225.636 29.3558 225.82 29.7718C226.004 30.1798 226.096 30.6478 226.096 31.1758ZM226.072 24.6509C226.072 25.1629 225.984 25.6229 225.808 26.0309C225.632 26.4309 225.348 26.7509 224.956 26.9909C224.564 27.2229 224.044 27.3389 223.396 27.3389H219.904C219.256 27.3389 218.736 27.2229 218.344 26.9909C217.952 26.7509 217.668 26.4309 217.492 26.0309C217.316 25.6229 217.228 25.1629 217.228 24.6509C217.228 24.1469 217.316 23.6909 217.492 23.2829C217.668 22.8749 217.952 22.5509 218.344 22.3109C218.736 22.0709 219.256 21.9509 219.904 21.9509H223.396C224.044 21.9509 224.564 22.0709 224.956 22.3109C225.348 22.5509 225.632 22.8749 225.808 23.2829C225.984 23.6909 226.072 24.1469 226.072 24.6509ZM224.944 24.6509C224.944 24.2109 224.82 23.8629 224.572 23.6069C224.316 23.3509 223.924 23.2229 223.396 23.2229H219.904C219.376 23.2229 218.988 23.3509 218.74 23.6069C218.484 23.8549 218.356 24.2029 218.356 24.6509C218.356 25.0989 218.484 25.4509 218.74 25.7069C218.988 25.9549 219.376 26.0789 219.904 26.0789H223.396C223.924 26.0789 224.316 25.9549 224.572 25.7069C224.82 25.4509 224.944 25.0989 224.944 24.6509Z" fill="#B8B1B1"/>
<defs>
<filter id="filter0_b_289_25" x="-25" y="-25" width="295" height="172" filterUnits="userSpaceOnUse" color-interpolation-filters="sRGB">
<feFlood flood-opacity="0" result="BackgroundImageFix"/>
<feGaussianBlur in="BackgroundImageFix" stdDeviation="12.5"/>
<feComposite in2="SourceAlpha" operator="in" result="effect1_backgroundBlur_289_25"/>
<feBlend mode="normal" in="SourceGraphic" in2="effect1_backgroundBlur_289_25" result="shape"/>
</filter>
</defs>
</svg>
