<svg width="245" height="122" viewBox="0 0 245 122" fill="none" xmlns="http://www.w3.org/2000/svg">
<g filter="url(#filter0_b_288_17)">
<rect width="245" height="122" rx="10" fill="white" fill-opacity="0.1"/>
<rect x="0.5" y="0.5" width="244" height="121" rx="9.5" stroke="#4F337E"/>
</g>
<circle cx="205.5" cy="33.5" r="13.5" fill="#EC0014" fill-opacity="0.7"/>
<circle cx="221.5" cy="33.5" r="13.5" fill="#F79F14" fill-opacity="0.7"/>
<g opacity="0.9">
<path d="M15 44V46H17V44H15ZM19 44V46H23V44H19ZM15 48V50H19V48H15ZM21 48V50H23V48H21ZM15 52V54H17V52H15ZM19 52V54H23V52H19ZM12 43C12 42.45 12.1958 41.9792 12.5875 41.5875C12.9792 41.1958 13.45 41 14 41H26L32 47V55C32 55.55 31.8042 56.0208 31.4125 56.4125C31.0208 56.8042 30.55 57 30 57H14C13.45 57 12.9792 56.8042 12.5875 56.4125C12.1958 56.0208 12 55.55 12 55V43ZM14 43V55H30V47.85L25.15 43H14Z" fill="#B8B1B1"/>
</g>
<path d="M40.0762 51.1857C39.9488 51.7224 39.7807 52.2336 39.5722 52.7196L37 51.8084C37.139 51.4439 37.2549 51.0693 37.3476 50.6846C37.4403 50.2998 37.4866 49.905 37.4866 49.5C37.4866 49.095 37.4403 48.7002 37.3476 48.3154C37.2549 47.9307 37.139 47.5561 37 47.1916L39.5722 46.2804C39.7807 46.7664 39.9488 47.2776 40.0762 47.8143C40.2037 48.3509 40.2674 48.9128 40.2674 49.5C40.2674 50.0872 40.2037 50.6491 40.0762 51.1857Z" fill="#B8B1B1"/>
<path d="M44.873 51.9907C44.6992 52.8006 44.4153 53.5903 44.0214 54.3598L41.4492 53.4486C41.7736 52.8411 42.0053 52.2083 42.1444 51.5502C42.2834 50.8921 42.3529 50.2087 42.3529 49.5C42.3529 48.7913 42.2834 48.1079 42.1444 47.4498C42.0053 46.7917 41.7736 46.1589 41.4492 45.5514L44.0214 44.6402C44.4153 45.4097 44.6992 46.1994 44.873 47.0093C45.0468 47.8193 45.1337 48.6495 45.1337 49.5C45.1337 50.3505 45.0468 51.1807 44.873 51.9907Z" fill="#B8B1B1"/>
<path d="M49.635 52.8563C49.3917 53.9396 49.0267 54.9875 48.5401 56L45.9679 55.028C46.385 54.1776 46.6979 53.2866 46.9064 52.3551C47.115 51.4237 47.2193 50.472 47.2193 49.5C47.2193 48.528 47.115 47.5763 46.9064 46.6449C46.6979 45.7134 46.385 44.8224 45.9679 43.972L48.5401 43C49.0267 44.0125 49.3917 45.0604 49.635 46.1437C49.8783 47.227 50 48.3458 50 49.5C50 50.6542 49.8783 51.773 49.635 52.8563Z" fill="#B8B1B1"/>
<defs>
<filter id="filter0_b_288_17" x="-25" y="-25" width="295" height="172" filterUnits="userSpaceOnUse" color-interpolation-filters="sRGB">
<feFlood flood-opacity="0" result="BackgroundImageFix"/>
<feGaussianBlur in="BackgroundImageFix" stdDeviation="12.5"/>
<feComposite in2="SourceAlpha" operator="in" result="effect1_backgroundBlur_288_17"/>
<feBlend mode="normal" in="SourceGraphic" in2="effect1_backgroundBlur_288_17" result="shape"/>
</filter>
</defs>
</svg>
