<svg width="40" height="24" viewBox="0 0 40 24" fill="none" xmlns="http://www.w3.org/2000/svg">
<g opacity="0.9">
<path d="M5 7V9H7V7H5ZM9 7V9H13V7L9 7ZM5 11V13H9V11L5 11ZM11 11V13L13 13V11H11ZM5 15V17H7V15H5ZM9 15V17H13V15L9 15ZM2 6C2 5.45 2.19583 4.97917 2.5875 4.5875C2.97917 4.19583 3.45 4 4 4L16 4L22 10V18C22 18.55 21.8042 19.0208 21.4125 19.4125C21.0208 19.8042 20.55 20 20 20H4C3.45 20 2.97917 19.8042 2.5875 19.4125C2.19583 19.0208 2 18.55 2 18V6ZM4 6V18H20V10.85L15.15 6L4 6Z" fill="#B8B1B1"/>
</g>
<path d="M30.0762 14.1857C29.9488 14.7224 29.7807 15.2336 29.5722 15.7196L27 14.8084C27.139 14.4439 27.2549 14.0693 27.3476 13.6846C27.4403 13.2998 27.4866 12.905 27.4866 12.5C27.4866 12.095 27.4403 11.7002 27.3476 11.3154C27.2549 10.9307 27.139 10.5561 27 10.1916L29.5722 9.28037C29.7807 9.76636 29.9488 10.2776 30.0762 10.8143C30.2037 11.3509 30.2674 11.9128 30.2674 12.5C30.2674 13.0872 30.2037 13.6491 30.0762 14.1857Z" fill="#B8B1B1"/>
<path d="M34.873 14.9907C34.6992 15.8006 34.4153 16.5903 34.0214 17.3598L31.4492 16.4486C31.7736 15.8411 32.0053 15.2083 32.1444 14.5502C32.2834 13.8921 32.3529 13.2087 32.3529 12.5C32.3529 11.7913 32.2834 11.1079 32.1444 10.4498C32.0053 9.79167 31.7736 9.15888 31.4492 8.5514L34.0214 7.64019C34.4153 8.40966 34.6992 9.19938 34.873 10.0093C35.0468 10.8193 35.1337 11.6495 35.1337 12.5C35.1337 13.3505 35.0468 14.1807 34.873 14.9907Z" fill="#B8B1B1"/>
<path d="M39.635 15.8563C39.3917 16.9396 39.0267 17.9875 38.5401 19L35.9679 18.028C36.385 17.1776 36.6979 16.2866 36.9064 15.3551C37.115 14.4237 37.2193 13.472 37.2193 12.5C37.2193 11.528 37.115 10.5763 36.9064 9.64486C36.6979 8.7134 36.385 7.82243 35.9679 6.97196L38.5401 6C39.0267 7.01246 39.3917 8.06036 39.635 9.14369C39.8783 10.227 40 11.3458 40 12.5C40 13.6542 39.8783 14.773 39.635 15.8563Z" fill="#B8B1B1"/>
</svg>
