<svg width="24" height="41" viewBox="0 0 24 41" fill="none" xmlns="http://www.w3.org/2000/svg">
<g opacity="0.9">
<path d="M7 36.0001H9V34.0001H7V36.0001ZM7 32.0001H9V28.0001H7V32.0001ZM11 36.0001H13V32.0001H11V36.0001ZM11 30.0001H13V28.0001H11V30.0001ZM15 36.0001H17V34.0001H15V36.0001ZM15 32.0001H17V28.0001H15V32.0001ZM6 39.0001C5.45 39.0001 4.97917 38.8042 4.5875 38.4126C4.19583 38.0209 4 37.5501 4 37.0001L4 25.0001L10 19.0001H18C18.55 19.0001 19.0208 19.1959 19.4125 19.5876C19.8042 19.9792 20 20.4501 20 21.0001V37.0001C20 37.5501 19.8042 38.0209 19.4125 38.4126C19.0208 38.8042 18.55 39.0001 18 39.0001H6ZM6 37.0001H18V21.0001H10.85L6 25.8501V37.0001Z" fill="#B8B1B1"/>
</g>
<path d="M15.1857 9.9238C15.7224 10.0512 16.2336 10.2193 16.7196 10.4278L15.8084 13C15.4439 12.861 15.0693 12.7451 14.6846 12.6524C14.2998 12.5597 13.905 12.5134 13.5 12.5134C13.095 12.5134 12.7002 12.5597 12.3154 12.6524C11.9307 12.7451 11.5561 12.861 11.1916 13L10.2804 10.4278C10.7664 10.2193 11.2776 10.0512 11.8143 9.9238C12.3509 9.79635 12.9128 9.73262 13.5 9.73262C14.0872 9.73262 14.6491 9.79635 15.1857 9.9238Z" fill="#B8B1B1"/>
<path d="M15.9907 5.12701C16.8006 5.3008 17.5903 5.58467 18.3598 5.97861L17.4486 8.5508C16.8411 8.22638 16.2083 7.99465 15.5502 7.85562C14.8921 7.71658 14.2087 7.64706 13.5 7.64706C12.7913 7.64706 12.1079 7.71658 11.4498 7.85562C10.7917 7.99465 10.1589 8.22638 9.5514 8.5508L8.64019 5.97861C9.40966 5.58467 10.1994 5.3008 11.0093 5.12701C11.8193 4.95321 12.6495 4.86631 13.5 4.86631C14.3505 4.86631 15.1807 4.95321 15.9907 5.12701Z" fill="#B8B1B1"/>
<path d="M16.8563 0.364973C17.9396 0.608289 18.9875 0.973262 20 1.45989L19.028 4.03209C18.1776 3.61497 17.2866 3.30214 16.3551 3.09358C15.4237 2.88503 14.472 2.78075 13.5 2.78075C12.528 2.78075 11.5763 2.88503 10.6449 3.09358C9.7134 3.30214 8.82243 3.61497 7.97196 4.03209L7 1.45989C8.01246 0.973262 9.06036 0.608289 10.1437 0.364973C11.227 0.121658 12.3458 0 13.5 0C14.6542 0 15.773 0.121658 16.8563 0.364973Z" fill="#B8B1B1"/>
</svg>
