<svg width="10" height="23" viewBox="0 0 10 23" fill="none" xmlns="http://www.w3.org/2000/svg">
<path d="M9.072 19.39C9.072 19.566 9.036 19.734 8.964 19.894C8.892 20.046 8.784 20.146 8.64 20.194L0.864 22.582C0.816 22.598 0.78 22.606 0.756 22.606C0.651999 22.606 0.563999 22.566 0.491999 22.486C0.411999 22.398 0.348 22.294 0.3 22.174C0.252 22.046 0.228 21.926 0.228 21.814C0.228 21.702 0.248 21.606 0.288 21.526C0.328 21.446 0.396 21.394 0.491999 21.37L7.332 19.39L0.491999 17.422C0.396 17.39 0.328 17.334 0.288 17.254C0.248 17.174 0.228 17.082 0.228 16.978C0.228 16.858 0.252 16.738 0.3 16.618C0.348 16.498 0.411999 16.398 0.491999 16.318C0.563999 16.23 0.651999 16.186 0.756 16.186C0.771999 16.186 0.787999 16.19 0.804 16.198C0.819999 16.198 0.839999 16.198 0.864 16.198L8.64 18.574C8.784 18.622 8.892 18.726 8.964 18.886C9.036 19.038 9.072 19.206 9.072 19.39ZM9 14.6072C9 14.7672 8.964 14.9152 8.892 15.0512C8.82 15.1792 8.716 15.2432 8.58 15.2432H0.636C0.492 15.2432 0.388 15.1792 0.323999 15.0512C0.26 14.9152 0.228 14.7672 0.228 14.6072C0.228 14.4472 0.26 14.3032 0.323999 14.1752C0.388 14.0392 0.492 13.9712 0.636 13.9712H8.58C8.716 13.9712 8.82 14.0392 8.892 14.1752C8.964 14.3032 9 14.4472 9 14.6072ZM9.096 10.1758C9.096 10.6958 9.02 11.1558 8.868 11.5558C8.716 11.9558 8.532 12.2678 8.316 12.4918C8.092 12.7158 7.88 12.8278 7.68 12.8278C7.584 12.8278 7.484 12.8038 7.38 12.7558C7.276 12.6998 7.188 12.6318 7.116 12.5518C7.036 12.4638 6.996 12.3718 6.996 12.2758C6.996 12.1638 7.044 12.0598 7.14 11.9638C7.228 11.8598 7.336 11.7358 7.464 11.5918C7.592 11.4478 7.704 11.2678 7.8 11.0518C7.896 10.8358 7.944 10.5598 7.944 10.2238C7.944 9.93578 7.9 9.67978 7.812 9.45578C7.716 9.22378 7.576 9.04378 7.392 8.91578C7.2 8.77978 6.96 8.71178 6.672 8.71178C6.368 8.71178 6.116 8.78378 5.916 8.92778C5.716 9.06378 5.548 9.25178 5.412 9.49178C5.276 9.72378 5.152 9.97578 5.04 10.2478C4.928 10.5198 4.808 10.7958 4.68 11.0758C4.552 11.3558 4.4 11.6118 4.224 11.8438C4.04 12.0758 3.812 12.2638 3.54 12.4078C3.26 12.5438 2.912 12.6118 2.496 12.6118C2.056 12.6118 1.688 12.5318 1.392 12.3718C1.096 12.2038 0.86 11.9838 0.684 11.7118C0.508 11.4398 0.384 11.1398 0.312 10.8118C0.232 10.4838 0.192 10.1598 0.192 9.83978C0.192 9.63978 0.208 9.41978 0.24 9.17978C0.263999 8.93178 0.311999 8.69178 0.383999 8.45978C0.447999 8.22778 0.536 8.03578 0.648 7.88378C0.76 7.73178 0.895999 7.65578 1.056 7.65578C1.136 7.65578 1.232 7.67578 1.344 7.71578C1.448 7.75578 1.54 7.81578 1.62 7.89578C1.7 7.96778 1.74 8.06378 1.74 8.18378C1.74 8.28778 1.704 8.40378 1.632 8.53178C1.552 8.65978 1.476 8.82778 1.404 9.03578C1.324 9.23578 1.284 9.50378 1.284 9.83978C1.284 10.1278 1.324 10.3878 1.404 10.6198C1.484 10.8438 1.604 11.0198 1.764 11.1478C1.916 11.2758 2.12 11.3398 2.376 11.3398C2.632 11.3398 2.844 11.2718 3.012 11.1358C3.172 10.9918 3.312 10.8038 3.432 10.5718C3.544 10.3398 3.652 10.0878 3.756 9.81578C3.86 9.53578 3.984 9.25978 4.128 8.98778C4.264 8.70778 4.432 8.45178 4.632 8.21978C4.832 7.97978 5.088 7.79178 5.4 7.65578C5.704 7.51178 6.084 7.43978 6.54 7.43978C7.116 7.43978 7.596 7.55978 7.98 7.79978C8.356 8.03178 8.636 8.35578 8.82 8.77178C9.004 9.17978 9.096 9.64778 9.096 10.1758ZM9.072 3.65087C9.072 4.16287 8.984 4.62287 8.808 5.03087C8.632 5.43087 8.348 5.75087 7.956 5.99087C7.564 6.22287 7.044 6.33887 6.396 6.33887H2.904C2.256 6.33887 1.736 6.22287 1.344 5.99087C0.952 5.75087 0.668 5.43087 0.491999 5.03087C0.316 4.62287 0.228 4.16287 0.228 3.65087C0.228 3.14687 0.316 2.69087 0.491999 2.28287C0.668 1.87487 0.952 1.55087 1.344 1.31087C1.736 1.07087 2.256 0.950875 2.904 0.950875H6.396C7.044 0.950875 7.564 1.07087 7.956 1.31087C8.348 1.55087 8.632 1.87487 8.808 2.28287C8.984 2.69087 9.072 3.14687 9.072 3.65087ZM7.944 3.65087C7.944 3.21087 7.82 2.86287 7.572 2.60687C7.316 2.35087 6.924 2.22287 6.396 2.22287H2.904C2.376 2.22287 1.988 2.35087 1.74 2.60687C1.484 2.85487 1.356 3.20287 1.356 3.65087C1.356 4.09887 1.484 4.45087 1.74 4.70687C1.988 4.95487 2.376 5.07887 2.904 5.07887H6.396C6.924 5.07887 7.316 4.95487 7.572 4.70687C7.82 4.45087 7.944 4.09887 7.944 3.65087Z" fill="#B8B1B1"/>
</svg>
